<svg width="128" height="128" viewBox="0 0 128 128" fill="none" xmlns="http://www.w3.org/2000/svg">
<path d="M52.4 125.6C40.4 125.6 30.5 115.8 30.4 103.8L30.2 75.5C28.5 75.7 26.9 75.8 25.4 75.8C10.4 75.8 2.89999 65.4 2.39999 43.9C2.09999 31.8 5.59999 21.8 12.7 14.3C17.6 9.09999 26.5 2.79999 41.1 2.39999C41.6 2.39999 42.2 2.39999 42.9 2.39999C50.7 2.39999 61.9 4.29999 71.2 13.3C80.2 22 82.4 32.8 82.8 38.8C83.6 38.7 84.3 38.7 85.1 38.7C89 38.7 92.8 40 95.8 42.3L96.3 41.9C99 39.9 102.2 38.9 105.5 38.9C108.9 38.9 112.1 39.9 114.8 41.9L117.2 43.7C120.2 45.9 122.6 48.7 124.1 51.9C125.1 54 125.6 55.8 125.6 57.5V102.7C125.6 115.4 115.3 125.7 102.6 125.7H52.4V125.6Z" fill="#A4B1CD"/>
<path d="M33.1 72C17.8 75 5.99999 70.9 5.39999 43.8C5.29999 38.6 5.39999 26.3 14.9 16.3C24.8 5.79998 37.9 5.39998 41.3 5.29998C45.2 5.19998 58.5 4.99998 69.2 15.4C80 26.1 80 39.9 79.9 42.3L82.8 41.8C87.1 41.1 91.5 42.4 94.8 45.2L95.7 46L98.1 44.3C102.6 41.1 108.6 41.1 113.1 44.3L115.5 46.1C118 47.9 120.1 50.3 121.4 53.1C122.1 54.5 122.6 56 122.6 57.4V102.6C122.6 113.6 113.7 122.6 102.6 122.6H52.4C42 122.6 33.5 114.2 33.4 103.7L33.1 72Z" fill="#141D2B"/>
<path d="M50.5 104.8V106.7C50.5 106.8 50.6 106.9 50.7 106.9H104.7C104.8 106.9 104.9 106.8 104.9 106.7V104.8C104.9 104.7 105 104.6 105.1 104.6H107.5C107.6 104.6 107.7 104.5 107.7 104.4V93.6C107.7 93.5 107.6 93.4 107.5 93.4H105.6C105.5 93.4 105.4 93.3 105.4 93.2L105.3 86.7C105.3 86.6 105.4 86.4 105.5 86.4H107.5C107.6 86.4 107.7 86.3 107.7 86.2V76.2C107.7 76.1 107.6 76 107.5 76H105.7C105.6 76 105.5 75.9 105.5 75.8L105.4 71.1C105.4 71 105.5 70.9 105.6 70.9L107.5 70.6C107.6 70.6 107.7 70.5 107.7 70.4V60.1C107.7 60 107.6 59.9 107.5 59.9H106C105.9 59.9 105.8 59.8 105.8 59.7V58C105.8 57.8 105.6 57.7 105.4 57.8L97.9 63.8C97.8 63.9 97.8 64.1 97.9 64.2L99.1 65.4C99.2 65.5 99.2 65.7 99.1 65.8L91.5 71.7C91.4 71.8 91.4 72 91.5 72.1L94.1 74.1C94.2 74.2 94.2 74.4 94.1 74.5L75 85.2C74.8 85.3 74.5 85.1 74.7 84.8L81 74.7C81.1 74.6 81 74.4 80.9 74.3L78.8 73.2C78.7 73.1 78.6 73 78.7 72.8L84.5 64.6C84.6 64.5 84.5 64.3 84.4 64.2L82.4 63.5C82.3 63.5 82.2 63.3 82.3 63.1L85.6 57.7C85.7 57.5 85.6 57.3 85.4 57.3H50.5V57.9H48.7C48.6 57.9 48.5 58 48.5 58.1V60.1H48V71C48 71.1 48.1 71.2 48.2 71.2H50.4C50.5 71.2 50.6 71.3 50.6 71.4V75.5C50.6 75.6 50.5 75.7 50.4 75.8H48.1C48 75.8 47.9 75.9 47.9 76V86.3C47.9 86.4 48 86.5 48.1 86.5H50.4C50.5 86.5 50.6 86.6 50.6 86.7V93.1C50.6 93.2 50.5 93.3 50.4 93.3H48.1C48 93.3 47.9 93.4 47.9 93.5V103.7C47.9 103.8 48 103.9 48.1 103.9H50.1C50.3 104.5 50.5 104.6 50.5 104.8Z" fill="#B03434"/>
<path d="M25.4 51.7C25.4 50.3 25.3 48.4 25.3 46C25.3 42.8 25.3 41.2 25.4 40.2C25.5 39.1 26.2 33.4 31.3 29.5C35.6 26.2 40.5 26.1 42.3 26C44 26 51.2 25.7 56.1 30.5C59.6 34 60.1 38.6 60.4 40.9C60.6 42.8 60.6 45.4 60.6 46.3C60.6 48.5 60.5 50.4 60.4 51.7" stroke="#B03434" stroke-width="9.6462" stroke-miterlimit="2.5" stroke-linecap="round" stroke-linejoin="round"/>
</svg>
