<svg width="512" height="512" viewBox="0 0 512 512" fill="none" xmlns="http://www.w3.org/2000/svg">
<path d="M124.928 288.973C60.5184 301.67 10.752 284.365 8.19196 170.291C7.67996 148.173 8.39676 96.5631 48.128 54.4767C89.9071 10.3423 145.101 8.60152 159.232 8.19192C175.821 7.67992 231.834 6.86072 276.685 50.5855C322.765 95.4367 322.56 153.702 322.355 163.942L334.438 161.997C352.666 159.13 371.2 164.352 385.126 176.333L389.018 179.712L399.053 172.441C417.894 158.822 443.392 158.822 462.234 172.544L472.474 180.019C483.123 187.802 491.827 197.837 497.459 209.715C500.224 215.654 502.374 222.003 502.374 227.84V418.304C502.374 464.793 464.691 502.477 418.202 502.477H206.234C162.202 502.477 126.464 467.046 126.054 423.014L124.928 288.973Z" fill="#141D2B"/>
<path d="M198.144 427.213V435.302C198.144 435.917 198.656 436.326 199.168 436.326H426.906C427.52 436.326 427.93 435.814 427.93 435.302V427.213C427.93 426.598 428.442 426.189 428.954 426.189H438.886C439.501 426.189 439.91 425.677 439.91 425.165V379.904C439.91 379.29 439.398 378.88 438.886 378.88H430.797C430.182 378.88 429.773 378.368 429.773 377.856L429.363 350.515C429.363 349.901 429.875 349.389 430.387 349.389H438.886C439.501 349.389 439.91 348.877 439.91 348.365V306.381C439.91 305.766 439.398 305.357 438.886 305.357H431.411C430.797 305.357 430.387 304.845 430.387 304.333L430.08 284.672C430.08 284.16 430.49 283.648 431.002 283.648L439.091 282.522C439.603 282.419 440.013 282.01 440.013 281.498V239.002C440.013 238.387 439.501 237.978 438.989 237.978H432.128C431.514 237.978 431.104 237.568 431.104 236.954L430.899 229.99C430.899 229.069 429.875 228.659 429.158 229.171L397.722 254.566C397.21 254.976 397.21 255.693 397.619 256.205L402.739 261.12C403.251 261.53 403.149 262.349 402.637 262.758L370.688 287.437C370.176 287.846 370.176 288.666 370.688 289.178L381.85 297.472C382.464 297.882 382.362 298.906 381.747 299.213L301.67 344.678C300.749 345.19 299.622 344.166 300.237 343.142L326.656 300.442C326.963 299.93 326.758 299.213 326.246 298.906L317.235 294.4C316.621 294.093 316.416 293.376 316.826 292.864L341.402 258.15C341.811 257.536 341.504 256.717 340.89 256.512L332.39 253.542C331.776 253.338 331.469 252.518 331.878 252.006L345.805 229.376C346.214 228.659 345.702 227.738 344.883 227.738H198.144V230.195H190.669C190.054 230.195 189.645 230.707 189.645 231.219V239.616L187.699 239.718V284.979C187.699 285.594 188.211 286.003 188.723 286.003H198.144C198.758 286.003 199.168 286.515 199.168 287.027L199.373 304.333C199.373 304.947 198.963 305.357 198.349 305.459L188.723 305.664C188.109 305.664 187.699 306.176 187.699 306.688V350.31C187.699 350.925 188.211 351.334 188.723 351.334H198.246C198.861 351.334 199.27 351.846 199.27 352.358V379.392C199.27 380.006 198.758 380.416 198.246 380.416L188.723 380.621C188.109 380.621 187.699 381.133 187.699 381.645V424.755C187.699 425.37 188.211 425.779 188.723 425.779H197.12C197.632 426.086 198.144 426.598 198.144 427.213Z" fill="#9FEF00"/>
<path d="M92.6721 203.264C92.4673 197.53 92.2625 189.235 92.2625 179.302C92.2625 165.786 92.2625 159.027 92.6721 154.931C93.1841 150.426 96.0513 126.259 117.453 109.773C135.475 95.9487 156.365 95.3343 163.84 95.1295C171.11 94.9247 201.421 94.0031 222.003 114.278C236.851 128.921 238.899 148.582 240.026 158.208C240.947 166.195 240.947 177.357 240.947 180.941C240.947 190.361 240.538 198.144 240.026 203.673" stroke="#9FEF00" stroke-width="40.6622" stroke-miterlimit="10" stroke-linecap="round" stroke-linejoin="round"/>
</svg>
