<svg width="512" height="512" viewBox="0 0 512 512" fill="none" xmlns="http://www.w3.org/2000/svg">
<path d="M502.2 207.2C496.2 194.5 486.7 183.2 474.6 174.4L464.6 167.1C453.8 159.3 441.1 155.1 427.8 155.1C414.6 155.1 401.9 159.2 391.2 167L387.6 169.6C375.1 159.6 359.4 154.2 343.3 154.2C339.6 154.2 335.8 154.5 332.1 155.1L331.3 155.2C329.8 131.3 321.7 85.4 283.9 48.6C246.2 11.7 200.5 4 168.9 4C166 4 163.5 4.1 161.6 4.1C102.3 5.8 66 31.4 45.9 52.5C28 71.6 15.6 94.6 9.2 121C4.1 142.1 3.9 160.7 4.1 172.9C6.1 259.9 36.2 302.2 96.3 302.2C103.3 302.2 110.6 301.6 118.6 300.5L119.6 420.3C119.8 443.8 129.1 465.8 145.8 482.3C162.4 498.8 184.5 507.9 208 507.9H415.7C466.6 507.9 508 466.5 508 415.6V229.1C507.9 222.7 506.1 215.5 502.2 207.2Z" fill="#A4B1CD"/>
<path d="M128.3 289C65.2 301.4 16.4 284.5 13.9 172.7C13.4 151 14.1 100.5 53 59.2C94 16 148.1 14.3 161.9 13.9C178.2 13.4 233 12.6 277 55.4C322.2 99.3 321.9 156.4 321.7 166.5L333.5 164.6C351.4 161.8 369.5 166.9 383.2 178.6L387 181.9L396.8 174.8C415.3 161.5 440.2 161.5 458.7 174.9L468.7 182.2C479.1 189.8 487.7 199.7 493.2 211.3C495.9 217.1 498 223.3 498 229.1V415.7C498 461.3 461.1 498.2 415.5 498.2H208C164.9 498.2 129.8 463.5 129.4 420.3L128.3 289Z" fill="#141D2B"/>
<path d="M200.1 424.5V432.4C200.1 433 200.6 433.4 201.1 433.4H424.2C424.8 433.4 425.2 432.9 425.2 432.4V424.5C425.2 423.9 425.7 423.5 426.2 423.5H435.9C436.5 423.5 436.9 423 436.9 422.5V378.2C436.9 377.6 436.4 377.2 435.9 377.2H428C427.4 377.2 427 376.7 427 376.2L426.6 349.4C426.6 348.8 427.1 348.3 427.6 348.3H435.9C436.5 348.3 436.9 347.8 436.9 347.3V306.2C436.9 305.6 436.4 305.2 435.9 305.2H428.6C428 305.2 427.6 304.7 427.6 304.2L427.3 284.9C427.3 284.4 427.7 283.9 428.2 283.9L436.1 282.8C436.6 282.7 437 282.3 437 281.8V240.2C437 239.6 436.5 239.2 436 239.2H429.3C428.7 239.2 428.3 238.8 428.3 238.2L428.1 231.4C428.1 230.5 427.1 230.1 426.4 230.6L395.6 255.5C395.1 255.9 395.1 256.6 395.5 257.1L400.5 261.9C401 262.3 400.9 263.1 400.4 263.5L369.1 287.7C368.6 288.1 368.6 288.9 369.1 289.4L380 297.5C380.6 297.9 380.5 298.9 379.9 299.2L301.4 343.7C300.5 344.2 299.4 343.2 300 342.2L325.9 300.4C326.2 299.9 326 299.2 325.5 298.9L316.7 294.5C316.1 294.2 315.9 293.5 316.3 293L340.4 259C340.8 258.4 340.5 257.6 339.9 257.4L331.6 254.5C331 254.3 330.7 253.5 331.1 253L344.7 230.8C345.1 230.1 344.6 229.2 343.8 229.2H200.1V231.6H192.8C192.2 231.6 191.8 232.1 191.8 232.6V240.8L189.9 240.9V285.2C189.9 285.8 190.4 286.2 190.9 286.2H200.1C200.7 286.2 201.1 286.7 201.1 287.2L201.3 304.2C201.3 304.8 200.9 305.2 200.3 305.3L190.9 305.5C190.3 305.5 189.9 306 189.9 306.5V349.2C189.9 349.8 190.4 350.2 190.9 350.2H200.2C200.8 350.2 201.2 350.7 201.2 351.2V377.7C201.2 378.3 200.7 378.7 200.2 378.7L190.9 378.9C190.3 378.9 189.9 379.4 189.9 379.9V422.1C189.9 422.7 190.4 423.1 190.9 423.1H199.1C199.6 423.4 200.1 423.9 200.1 424.5Z" fill="#9FEF00"/>
<path d="M96.7 205C96.5 199.4 96.3 191.3 96.3 181.5C96.3 168.3 96.3 161.6 96.7 157.6C97.2 153.2 100 129.5 121 113.4C138.7 99.9 159.1 99.3 166.5 99.1C173.6 98.9 203.3 98 223.5 117.9C238 132.2 240.1 151.5 241.2 160.9C242.1 168.7 242.1 179.7 242.1 183.2C242.1 192.4 241.7 200.1 241.2 205.5" stroke="#9FEF00" stroke-width="39.8419" stroke-miterlimit="10" stroke-linecap="round" stroke-linejoin="round"/>
</svg>
