<svg width="512" height="512" viewBox="0 0 512 512" fill="none" xmlns="http://www.w3.org/2000/svg">
<path d="M72.4993 9.01123H378.573V309.453C382.259 309.862 387.584 310.989 393.318 313.958C406.528 320.717 412.262 332.595 415.232 339.149C419.84 349.184 424.551 359.219 420.557 368.128C415.642 379.187 398.848 385.126 379.494 381.952L378.982 428.749L439.296 503.091H132.813L79.0529 436.224L79.2577 20.992L72.4993 9.01123Z" fill="#9FEF00"/>
<path d="M90.624 20.9922H366.08V318.055C369.254 317.645 374.784 317.44 380.928 319.693C385.434 321.331 388.301 323.584 391.68 326.247C395.366 329.216 402.022 334.746 406.938 344.371C410.214 350.72 412.979 356.25 410.624 361.37C408.371 366.183 402.637 368.026 399.77 368.947C395.469 370.279 392.499 369.971 385.843 369.664C381.542 369.459 375.194 369.357 367.411 369.459C367.309 390.451 367.206 411.443 367.002 432.435L412.57 490.087H139.264L90.624 431.616V20.9922Z" fill="#141D2B"/>
<path d="M239.207 490.394L191.283 447.898C180.327 438.17 166.298 432.845 151.655 432.845H132.301C128.922 432.845 127.181 436.838 129.536 439.296L177.05 490.394H239.207Z" fill="#9FEF00"/>
<path d="M242.995 279.859L180.941 412.877C176.742 421.786 167.834 427.52 157.901 427.52H123.904C120.627 427.52 118.477 424.039 119.91 421.069L201.216 253.235C202.24 251.187 202.342 248.832 201.523 246.682L182.477 193.229C181.453 190.464 177.971 189.747 176.026 192L147.866 223.335C144.384 227.123 139.366 229.171 134.246 228.762C119.091 227.431 104.038 225.997 88.8832 224.666C88.1664 211.559 87.3472 198.349 86.6304 185.242C98.9184 185.242 111.206 185.242 123.494 185.242C125.645 185.242 127.693 184.423 129.126 182.887C133.632 173.159 141.619 158.72 155.546 144.794C162.509 137.831 173.158 127.079 190.157 120.423C203.571 115.098 215.142 115.2 238.182 115.405C277.606 115.712 296.55 124.109 303.206 127.488C305.766 128.819 310.784 131.379 316.518 135.987C318.566 137.626 326.554 144.282 333.619 155.853C334.848 157.799 335.462 159.437 336.589 161.075C356.352 190.157 360.141 208.589 345.498 214.938C333.414 223.744 322.048 208.896 310.784 189.85L295.936 161.485C295.219 160.051 293.683 159.232 292.045 159.232L261.222 160.051C259.174 160.154 257.946 162.202 258.867 164.045C270.95 188.621 281.293 211.763 286.106 230.605L296.141 316.211C296.448 318.669 298.496 320.615 301.056 320.717L374.17 323.175C379.187 323.379 382.566 324.813 384.512 325.837C386.765 327.066 388.813 328.909 392.704 332.698C395.776 335.565 397.414 337.101 399.36 339.456C401.51 342.119 403.661 344.781 405.197 348.775C406.528 352.359 407.962 355.943 406.323 359.629C404.89 362.701 401.92 364.237 401.51 364.442C400.179 365.056 398.746 365.466 397.107 365.466L286.31 365.978C269.824 366.08 255.693 353.997 253.133 337.715C249.754 318.362 246.374 299.111 242.995 279.859Z" fill="#9FEF00"/>
<path d="M172.442 115.405C193.084 115.405 209.818 98.671 209.818 78.0288C209.818 57.3866 193.084 40.6528 172.442 40.6528C151.799 40.6528 135.066 57.3866 135.066 78.0288C135.066 98.671 151.799 115.405 172.442 115.405Z" fill="#9FEF00"/>
</svg>
