<svg width="512" height="512" viewBox="0 0 512 512" fill="none" xmlns="http://www.w3.org/2000/svg">
<path d="M263.222 72.0176H354.826C368.785 72.0176 382.221 77.0777 393.737 86.3254L416.42 104.646V264.3C416.42 319.088 393.213 370.387 354.652 400.573L263.396 472.112C263.396 472.112 259.558 475.078 255.719 478.044C251.88 475.078 248.042 472.112 248.042 472.112L156.786 400.573C118.225 370.387 95.0182 319.263 95.0182 264.3V104.646L117.701 86.3254C129.217 77.0777 142.653 72.0176 156.611 72.0176H248.216H263.222Z" fill="url(#paint0_linear_2_225)"/>
<path opacity="0.1" d="M423.922 266.568C423.922 323.8 399.669 377.192 359.188 408.599L263.571 483.104C263.571 483.104 259.558 486.245 255.544 489.386C251.531 486.245 247.518 483.104 247.518 483.104L151.726 408.599C192.381 384.695 232.861 360.79 273.516 336.886C323.594 313.505 373.845 289.949 423.922 266.568Z" fill="white"/>
<path d="M395.132 339.154C391.992 331.128 387.804 323.45 382.569 316.645C379.778 312.981 373.671 305.653 363.376 297.452C360.759 295.358 358.316 293.614 355.873 292.043L356.048 288.728C356.222 286.983 358.491 245.979 349.592 200.788C344.357 174.091 336.156 151.408 325.338 133.436C311.554 110.579 293.408 95.5731 271.248 88.7682C258.511 84.755 246.122 82.8356 234.083 82.8356C205.467 82.8356 178.422 94.5261 156.262 116.511C141.431 131.168 133.23 145.825 131.486 149.314L101.125 138.147L106.36 215.793L136.72 218.061C136.197 245.281 119.097 263.777 118.923 263.951L115.782 267.266L118.574 270.756C122.587 275.816 128.868 278.608 136.022 278.608H136.197C136.197 279.306 136.197 279.829 136.022 280.527C135.848 281.225 135.499 281.923 134.975 282.446L134.801 282.621L134.626 282.795C130.962 288.205 131.486 292.392 132.533 294.835C133.23 296.231 134.103 297.452 134.975 298.325C134.277 300.593 134.452 302.338 134.975 303.734C135.848 306.7 138.116 308.445 140.21 309.666C139.337 319.612 141.257 326.417 146.142 330.43C149.632 333.396 153.994 334.792 159.578 334.792C165.51 334.792 171.966 333.222 179.818 331.128C184.18 330.081 193.951 326.94 205.991 319.961C210.178 329.906 211.923 340.375 211.051 350.67C208.084 381.205 182.435 398.304 177.201 401.271L170.57 405.284L176.677 409.995L255.719 470.541L289.743 444.194L290.441 442.973L290.79 443.496L348.545 399.351V399.875L353.605 395.687L354.303 395.164L357.793 392.197C364.946 386.09 371.402 379.286 377.335 372.132C384.314 363.407 390.247 353.811 394.958 343.865L395.83 341.771L395.132 339.154ZM333.016 331.302C332.841 330.953 332.667 330.604 332.318 330.081C339.472 339.852 344.357 349.1 346.451 357.475C348.021 363.408 348.719 370.038 348.894 371.783C344.881 357.65 339.472 344.04 333.016 331.302Z" fill="black"/>
<path d="M263.222 66.0851H344.706H354.826C358.491 66.0851 362.329 66.4341 365.993 67.132C373.322 68.5279 380.476 70.9707 386.932 74.6348C390.247 76.3797 393.213 78.4735 396.179 80.7418C397.75 81.9632 398.971 82.8357 400.192 84.0571L404.206 87.1978L420.084 100.11C421.48 101.157 422.178 102.901 422.178 104.472V104.646L423.399 214.572L423.748 242.14L423.922 255.925C423.922 260.461 424.097 264.998 423.922 269.884C423.748 288.902 420.433 307.921 414.849 326.242C411.883 335.315 408.393 344.389 404.031 352.938C402.984 355.207 401.763 357.126 400.716 359.394C399.495 361.488 398.448 363.582 397.052 365.676L393.213 371.783L389.025 377.715C383.267 385.393 376.986 393.07 369.832 399.526C368.087 401.271 366.168 402.841 364.423 404.411C362.504 405.982 360.584 407.727 358.84 409.123L348.021 417.672L262.175 486.419C258.162 489.56 252.753 489.386 248.914 486.419L163.067 417.672L152.249 409.123C150.504 407.727 148.585 405.982 146.666 404.411C144.746 402.841 143.002 401.271 141.257 399.526C134.103 392.895 127.821 385.393 122.063 377.715L117.876 371.783L114.037 365.676C112.641 363.582 111.594 361.488 110.373 359.394C109.326 357.301 107.93 355.207 107.058 352.938C102.696 344.389 99.2059 335.315 96.2397 326.242C90.6562 307.921 87.3409 288.902 87.1664 269.884C86.992 264.998 87.1664 260.461 87.1664 255.925L87.3409 242.14L87.6899 214.572L88.9113 104.646C88.9113 102.901 89.7837 101.157 91.0051 100.11L108.279 85.9764L112.641 82.4867C113.339 81.9632 114.037 81.2653 114.91 80.7418C115.608 80.0439 116.48 79.5204 117.352 78.997C120.668 76.7287 124.157 74.6349 127.821 72.7156C135.15 69.2259 143.176 66.9575 151.202 66.2596C153.122 66.0851 155.39 66.0851 157.309 66.0851H162.893H174.06H263.222ZM263.222 77.7757H174.06H162.893H157.309C155.39 77.7757 153.994 77.7756 152.249 77.9501C145.619 78.4736 138.988 80.2184 133.056 83.1847C130.09 84.5805 127.124 86.3254 124.332 88.4192C123.634 88.9427 122.936 89.4662 122.238 89.9896C121.54 90.5131 120.842 91.0365 120.144 91.5599L115.782 95.0496L98.508 109.183L100.602 104.646L101.823 214.572L102.172 242.14L102.347 255.925V262.73C102.347 264.998 102.521 267.092 102.521 269.36C103.045 286.983 106.534 304.432 111.943 321.008C114.91 329.208 118.225 337.409 122.238 345.087C123.11 347.006 124.332 348.925 125.379 350.845C126.426 352.764 127.472 354.683 128.694 356.428L132.184 361.837L136.022 367.072C141.257 373.877 147.015 380.507 153.471 386.091C155.041 387.661 156.611 388.882 158.356 390.278C160.101 391.674 161.497 392.895 163.416 394.291L174.409 402.667L261.826 469.494H248.565L335.982 402.667L346.975 394.291C348.894 392.895 350.29 391.5 352.035 390.278C353.78 388.882 355.35 387.661 356.92 386.091C363.376 380.507 368.96 373.877 374.369 367.072L378.207 361.837L381.697 356.428C382.919 354.683 383.965 352.764 385.012 350.845C386.059 348.925 387.281 347.18 388.153 345.087C392.166 337.409 395.481 329.208 398.448 321.008C404.031 304.432 407.346 286.983 407.87 269.36C407.87 267.092 408.044 264.998 408.044 262.73V255.925L408.219 242.14L408.568 214.572L409.789 104.646L411.883 109.183L396.005 96.271L391.992 93.1303C390.77 92.0834 389.374 90.862 388.153 89.9896C385.71 88.0703 383.093 86.3254 380.476 84.9295C375.067 81.9633 369.309 79.695 363.202 78.6481C360.235 78.1246 357.095 77.7757 354.128 77.7757H344.008H263.222Z" fill="url(#paint1_linear_2_225)"/>
<path opacity="0.25" d="M261.826 65.9107H356.92C371.402 65.9107 385.361 71.1453 397.401 80.9165L420.956 100.11C369.483 134.134 318.185 167.984 266.711 202.009C206.863 223.82 147.015 245.456 87.1664 267.266C87.8644 211.955 88.3878 156.817 89.0857 101.506C96.2396 95.9222 103.568 90.1641 110.722 84.5806C114.91 80.742 121.54 75.333 131.311 71.3198C139.337 68.0046 146.491 66.7832 151.726 66.4342C183.133 66.2598 214.715 66.0852 246.122 65.9107H261.826Z" fill="black"/>
<path d="M333.365 323.625C337.203 328.511 347.672 341.771 351.511 357.126C353.43 364.454 354.128 372.655 354.128 372.655C354.652 378.937 354.652 384.346 354.477 388.708C360.235 383.822 366.691 377.366 373.322 369.34C381.174 359.394 386.583 349.798 390.247 342.12C388.153 336.537 384.489 328.86 378.382 320.833C376.637 318.565 370.879 311.237 360.061 302.687C343.485 289.6 333.365 289.251 311.903 274.595C305.622 270.407 300.911 266.568 297.944 264.126L350.639 289.426C350.639 289.426 360.584 123.316 269.503 94.7006C178.422 66.0851 135.499 153.153 135.499 153.153L198.837 180.547L106.709 146.697L111.071 211.78L221.171 219.981C223.09 202.183 237.921 188.748 254.672 188.574C274.912 188.225 291.663 207.418 288.871 226.437C286.777 241.268 273.167 253.133 257.813 254.18C240.364 255.401 223.614 242.315 220.822 223.471L141.955 215.968C142.653 247.375 122.761 268.313 122.761 268.313C129.217 276.34 140.21 273.722 140.21 273.722C140.733 274.769 142.478 278.608 141.082 282.796C140.559 284.366 139.861 285.587 139.163 286.46C133.23 295.358 142.478 297.103 142.478 297.103C135.324 304.781 146.142 307.049 146.142 307.049C144.572 318.216 146.142 324.148 149.632 327.115C156.088 332.524 166.383 330.081 178.597 326.766C181.737 325.893 196.045 322.055 212.621 310.19C219.601 305.13 224.835 300.244 228.499 296.754C226.929 299.721 224.486 303.734 220.822 307.747C216.983 311.935 213.145 314.901 210.178 316.646C213.319 323.45 218.03 336.013 216.46 351.717C213.145 385.742 184.006 404.063 180.167 406.331C180.516 406.68 180.865 406.854 181.214 407.203C206.165 426.222 231.117 445.415 256.068 464.434C266.014 456.757 276.134 448.905 286.079 441.228C292.535 430.061 295.676 420.115 297.421 413.31C301.608 396.385 300.911 382.077 300.038 367.77C298.991 351.717 296.897 344.389 297.421 344.389C298.293 344.214 305.796 375.273 303.528 404.237C303.004 411.042 301.085 420.464 295.153 430.41C292.71 434.597 289.918 437.738 288.173 439.832C308.413 424.303 328.828 408.774 349.068 393.419C344.008 367.421 335.633 347.878 328.828 334.443C318.882 315.25 278.227 263.777 278.227 263.777C284.334 270.058 311.729 296.754 333.365 323.625Z" fill="white"/>
<path d="M255.021 246.328C269.379 246.328 281.019 234.923 281.019 220.853C281.019 206.784 269.379 195.378 255.021 195.378C240.663 195.378 229.023 206.784 229.023 220.853C229.023 234.923 240.663 246.328 255.021 246.328Z" fill="#E30613"/>
<path d="M156.611 224.517V241.442L187.67 224.517H156.611Z" fill="#E30613"/>
<path d="M358.316 167.286H374.543L374.369 161.877C373.671 143.033 368.436 106.566 341.914 74.8094C306.145 31.8861 256.242 26.128 234.955 23.5108C181.912 17.4038 138.988 35.8992 118.225 47.5897L123.285 56.6629C131.311 52.1263 143.002 46.5428 157.484 41.8317L169.698 74.1114L179.469 70.4473L167.604 39.04C179.469 35.8992 192.904 33.6309 207.561 32.933L212.796 75.5073C207.212 76.9031 201.978 78.8225 196.743 81.4398L201.454 90.6875C207.212 87.8957 213.145 85.8019 219.426 84.5805C225.533 83.3591 231.814 83.1846 238.096 83.7081L239.143 73.239C233.734 72.7155 228.325 72.7156 223.09 73.4135L218.03 32.584C223.09 32.7585 228.499 33.1074 233.734 33.6309C249.786 35.5502 283.113 39.3889 312.601 61.1996L294.629 89.2916C293.059 88.4192 291.314 87.3723 289.743 86.4999C281.717 82.3123 272.993 78.997 264.094 76.7287L261.477 86.8488C269.503 88.9426 277.355 91.9089 284.683 95.7476C289.395 98.3649 294.106 101.157 298.468 104.472L304.749 96.0966C304.226 95.7476 303.702 95.3986 303.179 95.0496L320.627 67.83C325.164 71.8431 329.526 76.2053 333.714 81.2653C355.873 107.787 361.98 138.147 363.376 156.643H358.142V167.286H358.316Z" fill="black"/>
<path d="M326.211 114.766L341.915 106.391L337.029 97.1434L319.231 106.74C317.312 104.821 315.567 102.901 313.473 101.157L306.494 108.834C314.52 115.988 321.325 124.363 326.909 133.436C332.492 142.684 336.854 152.804 339.646 163.273L349.766 160.656C346.8 149.14 342.089 138.147 335.808 128.027C332.841 123.491 329.701 118.954 326.211 114.766Z" fill="black"/>
<path d="M165.685 97.6668L142.653 70.0982L134.626 76.7286L163.591 111.451L187.495 95.922L181.737 87.1977L165.685 97.6668Z" fill="black"/>
<path d="M253.289 44.2783L250.187 76.059L260.607 77.0762L263.709 45.2955L253.289 44.2783Z" fill="black"/>
<path d="M174.758 80.0439C178.998 80.0439 182.435 76.6066 182.435 72.3665C182.435 68.1265 178.998 64.6893 174.758 64.6893C170.518 64.6893 167.081 68.1265 167.081 72.3665C167.081 76.6066 170.518 80.0439 174.758 80.0439Z" fill="black" stroke="black" stroke-width="0.4852" stroke-miterlimit="10"/>
<path d="M121.016 44.6235C116.829 44.6235 113.339 48.1132 113.339 52.3008C113.339 56.4884 116.829 59.9782 121.016 59.9782C125.204 59.9782 128.694 56.4884 128.694 52.3008C128.694 48.1132 125.204 44.6235 121.016 44.6235Z" fill="black" stroke="black" stroke-width="0.4852" stroke-miterlimit="10"/>
<path d="M199.186 78.4735C194.649 78.4735 190.636 83.1846 191.508 86.1509C192.381 89.1171 197.615 89.815 197.964 89.815C201.28 90.164 206.165 89.1171 207.038 86.1509C207.736 83.1846 203.722 78.4735 199.186 78.4735Z" fill="black" stroke="black" stroke-width="0.4852" stroke-miterlimit="10"/>
<path d="M238.794 71.1451C234.432 71.1451 230.419 75.1583 231.116 78.8225C231.64 81.9633 235.653 83.8826 238.619 83.8826C241.935 83.8826 245.948 81.9633 246.471 78.8225C247.169 75.1583 242.981 71.1451 238.794 71.1451Z" fill="black" stroke="black" stroke-width="0.4852" stroke-miterlimit="10"/>
<path d="M258.511 37.1206C254.323 37.1206 250.833 40.6103 250.833 44.798C250.833 48.9856 254.323 52.4754 258.511 52.4754C262.698 52.4754 266.188 48.9856 266.188 44.798C266.188 40.6103 262.873 37.1206 258.511 37.1206Z" fill="black" stroke="black" stroke-width="0.4852" stroke-miterlimit="10"/>
<path d="M347.324 101.68C347.324 97.4923 343.834 94.0027 339.646 94.0027C335.459 94.0027 331.969 97.4923 331.969 101.68C331.969 105.868 335.459 109.357 339.646 109.357C343.834 109.357 347.324 106.042 347.324 101.68Z" fill="black" stroke="black" stroke-width="0.4852" stroke-miterlimit="10"/>
<path d="M358.491 154.374C355.524 154.374 352.907 156.119 351.511 158.737C350.29 156.119 347.672 154.374 344.532 154.374C340.344 154.374 336.854 157.864 336.854 162.052C336.854 166.239 340.344 169.729 344.532 169.729C347.498 169.729 350.115 167.984 351.511 165.367C352.733 167.984 355.35 169.729 358.491 169.729C362.678 169.729 366.168 166.239 366.168 162.052C366.342 157.864 362.853 154.374 358.491 154.374Z" fill="black" stroke="black" stroke-width="0.4852" stroke-miterlimit="10"/>
<path d="M138.814 65.7361C134.626 65.7361 131.137 69.2259 131.137 73.4135C131.137 77.6012 134.626 81.0908 138.814 81.0908C143.002 81.0908 146.491 77.6012 146.491 73.4135C146.491 69.2259 143.002 65.7361 138.814 65.7361Z" fill="black" stroke="black" stroke-width="0.4852" stroke-miterlimit="10"/>
<path d="M174.583 77.4267C177.378 77.4267 179.643 75.1612 179.643 72.3666C179.643 69.572 177.378 67.3066 174.583 67.3066C171.789 67.3066 169.523 69.572 169.523 72.3666C169.523 75.1612 171.789 77.4267 174.583 77.4267Z" fill="#E30613" stroke="#E30613" stroke-width="0.4852" stroke-miterlimit="10"/>
<path d="M120.842 57.3609C123.637 57.3609 125.902 55.0954 125.902 52.3008C125.902 49.5062 123.637 47.2408 120.842 47.2408C118.047 47.2408 115.782 49.5062 115.782 52.3008C115.782 55.0954 118.047 57.3609 120.842 57.3609Z" fill="#E30613" stroke="#E30613" stroke-width="0.4852" stroke-miterlimit="10"/>
<path d="M199.011 91.2109C201.806 91.2109 204.071 88.9455 204.071 86.1509C204.071 83.3563 201.806 81.0908 199.011 81.0908C196.217 81.0908 193.951 83.3563 193.951 86.1509C193.951 88.9455 196.217 91.2109 199.011 91.2109Z" fill="#E30613" stroke="#E30613" stroke-width="0.4852" stroke-miterlimit="10"/>
<path d="M238.619 83.8826C241.414 83.8826 243.68 81.6171 243.68 78.8225C243.68 76.0279 241.414 73.7624 238.619 73.7624C235.825 73.7624 233.559 76.0279 233.559 78.8225C233.559 81.6171 235.825 83.8826 238.619 83.8826Z" fill="#E30613" stroke="#E30613" stroke-width="0.4852" stroke-miterlimit="10"/>
<path d="M258.336 49.8581C261.131 49.8581 263.396 47.5926 263.396 44.798C263.396 42.0034 261.131 39.7379 258.336 39.7379C255.542 39.7379 253.276 42.0034 253.276 44.798C253.276 47.5926 255.542 49.8581 258.336 49.8581Z" fill="#E30613" stroke="#E30613" stroke-width="0.4852" stroke-miterlimit="10"/>
<path d="M339.297 106.74C342.092 106.74 344.357 104.475 344.357 101.68C344.357 98.8855 342.092 96.6201 339.297 96.6201C336.503 96.6201 334.237 98.8855 334.237 101.68C334.237 104.475 336.503 106.74 339.297 106.74Z" fill="#E30613" stroke="#E30613" stroke-width="0.4852" stroke-miterlimit="10"/>
<path d="M344.532 167.112C347.326 167.112 349.592 164.847 349.592 162.052C349.592 159.257 347.326 156.992 344.532 156.992C341.737 156.992 339.472 159.257 339.472 162.052C339.472 164.847 341.737 167.112 344.532 167.112Z" fill="#E30613" stroke="#E30613" stroke-width="0.4852" stroke-miterlimit="10"/>
<path d="M358.316 167.112C361.111 167.112 363.376 164.847 363.376 162.052C363.376 159.257 361.111 156.992 358.316 156.992C355.521 156.992 353.256 159.257 353.256 162.052C353.256 164.847 355.521 167.112 358.316 167.112Z" fill="#E30613" stroke="#E30613" stroke-width="0.4852" stroke-miterlimit="10"/>
<path d="M138.64 78.4735C141.434 78.4735 143.7 76.2081 143.7 73.4135C143.7 70.6189 141.434 68.3534 138.64 68.3534C135.845 68.3534 133.58 70.6189 133.58 73.4135C133.58 76.2081 135.845 78.4735 138.64 78.4735Z" fill="#E30613" stroke="#E30613" stroke-width="0.4852" stroke-miterlimit="10"/>
<path d="M358.316 162.052C361.98 162.052 365.47 162.052 369.134 162.052C368.611 147.919 365.121 110.753 337.901 78.1245C303.528 36.7716 254.846 31.1881 234.257 28.7453C179.469 22.2893 137.244 43.0531 120.668 52.1263" stroke="#E30613" stroke-width="2.9552" stroke-miterlimit="10"/>
<path d="M199.011 86.1509C203.548 83.8826 210.178 81.0908 218.379 79.695C226.405 78.1246 233.385 78.2991 238.445 78.8225" stroke="#E30613" stroke-width="2.9552" stroke-miterlimit="10"/>
<path d="M212.098 27.6984L218.728 81.7888" stroke="#E30613" stroke-width="2.9552" stroke-miterlimit="10"/>
<path d="M262.873 82.1378C269.678 83.8827 278.228 86.6744 287.301 91.5599C292.884 94.5262 297.77 97.6669 301.783 100.808" stroke="#E30613" stroke-width="2.9552" stroke-miterlimit="10"/>
<path d="M344.532 162.052C342.438 154.026 338.599 142.858 331.271 130.819C324.117 118.954 316.091 110.579 309.984 104.995" stroke="#E30613" stroke-width="2.9552" stroke-miterlimit="10"/>
<path d="M319.58 60.3271L297.421 94.8752" stroke="#E30613" stroke-width="2.9552" stroke-miterlimit="10"/>
<path d="M184.529 91.5599C177.899 95.922 171.268 100.284 164.463 104.646L138.465 73.4135" stroke="#E30613" stroke-width="2.9552" stroke-miterlimit="10"/>
<path d="M160.625 35.3757L174.583 72.3666" stroke="#E30613" stroke-width="2.9552" stroke-miterlimit="10"/>
<path d="M258.336 44.798L255.37 76.5543" stroke="#E30613" stroke-width="2.9552" stroke-miterlimit="10"/>
<path d="M339.297 101.68L319.58 112.324" stroke="#E30613" stroke-width="2.9552" stroke-miterlimit="10"/>
<defs>
<linearGradient id="paint0_linear_2_225" x1="255.646" y1="478.066" x2="255.646" y2="71.9384" gradientUnits="userSpaceOnUse">
<stop stop-color="white"/>
<stop offset="0.0586592" stop-color="#A5A5A4"/>
<stop offset="0.1419" stop-color="#3F3F3E"/>
<stop offset="0.5749"/>
</linearGradient>
<linearGradient id="paint1_linear_2_225" x1="255.646" y1="488.832" x2="255.646" y2="61.25" gradientUnits="userSpaceOnUse">
<stop stop-color="#F7B39A"/>
<stop offset="0.0586592" stop-color="#F18B6C"/>
<stop offset="0.1313" stop-color="#ED6B4C"/>
<stop offset="0.2151" stop-color="#E94D33"/>
<stop offset="0.2821" stop-color="#E63323"/>
<stop offset="0.6034" stop-color="#E30613"/>
</linearGradient>
</defs>
</svg>
