<svg width="512" height="512" viewBox="0 0 512 512" fill="none" xmlns="http://www.w3.org/2000/svg">
<path d="M264.108 71.6179H355.656C369.458 71.6179 383.085 76.6845 394.616 85.9441L417.154 104.289V263.799C417.154 318.658 393.917 369.848 355.481 399.898L264.283 471.354C264.283 471.354 260.439 474.324 256.595 477.295C252.752 474.324 248.908 471.354 248.908 471.354L157.71 399.898C119.099 369.673 96.0369 318.658 96.0369 263.799V104.463L118.575 86.1188C130.105 76.8592 143.558 71.7926 157.535 71.7926H249.083H264.108V71.6179Z" fill="url(#paint0_linear_2_227)"/>
<path opacity="0.1" d="M424.666 266.07C424.666 323.2 400.382 376.661 360.024 408.109L264.457 482.71C264.457 482.71 260.439 485.855 256.421 489C252.402 485.855 248.384 482.71 248.384 482.71L152.818 408.109C193.35 384.174 233.883 360.413 274.416 336.478C324.558 313.067 374.525 289.656 424.666 266.07Z" fill="white"/>
<path d="M396.014 338.749C392.869 330.713 388.676 323.025 383.435 316.212C380.64 312.543 374.525 305.205 364.217 297.168C361.596 295.072 359.15 293.325 356.704 291.752L356.879 288.433C357.054 286.686 359.325 245.804 350.415 200.554C345.173 173.823 336.962 151.111 326.13 133.29C312.328 110.578 294.158 95.553 272.145 88.5646C259.391 84.5463 246.986 82.6245 234.931 82.6245C206.279 82.6245 179.374 94.3301 157.011 116.169C142.16 130.844 133.949 145.52 132.202 148.84L101.977 137.658L107.218 215.229L137.618 217.501C137.094 244.755 120.147 263.275 119.972 263.449L116.827 266.769L119.623 270.263C123.641 275.33 129.931 278.125 137.094 278.125H137.269C137.269 278.824 137.269 279.348 137.094 280.047C136.919 280.746 136.57 281.445 136.046 281.969L135.871 282.143L135.696 282.318C132.027 287.734 132.551 291.927 133.6 294.373C134.298 295.771 135.172 296.994 136.046 297.867C135.347 300.138 135.521 301.886 136.046 303.283C136.919 306.253 139.19 308 141.287 309.223C140.413 319.182 142.335 325.996 147.052 329.839C150.546 332.809 154.914 334.207 160.505 334.207C166.445 334.207 172.909 332.635 180.771 330.538C185.139 329.49 194.923 326.345 206.803 319.357C210.996 329.315 212.743 339.798 211.87 349.931C208.9 380.505 183.217 397.452 178.151 400.597L171.512 404.615L177.627 409.332L256.595 469.782L290.664 443.401L291.363 442.178L291.712 442.702L349.366 398.675V399.199L354.433 395.006L355.132 394.482L358.626 391.512C365.789 385.397 372.254 378.758 378.019 371.42C385.007 362.685 390.773 353.25 395.665 343.117L396.538 341.021L396.014 338.749ZM333.817 330.887C333.643 330.538 333.468 330.189 333.118 329.664C340.282 339.448 345.173 348.533 347.27 357.094C348.842 363.034 349.541 369.673 349.716 371.245C345.698 357.269 340.456 343.641 333.817 330.887Z" fill="black"/>
<path d="M264.108 65.8524H345.523H355.656C359.325 65.8524 363.169 66.2018 366.837 66.9007C374.175 68.2984 381.338 70.7443 387.803 74.4132C390.947 76.1603 394.092 78.2568 397.062 80.528C398.635 81.751 399.858 82.6246 401.081 83.8476L405.099 86.9923L420.823 99.9209C422.221 100.969 422.919 102.716 422.919 104.289V104.463L424.142 214.356L424.492 241.785L424.667 255.587C424.667 260.13 424.841 264.672 424.667 269.564C424.492 288.608 421.172 307.651 415.582 325.996C412.612 335.081 409.117 343.991 404.75 352.726C403.701 354.997 402.478 356.919 401.43 359.19C400.207 361.287 399.159 363.384 397.761 365.48L393.918 371.595L389.725 377.535C383.959 385.222 377.67 392.735 370.506 399.374C368.759 401.121 367.012 402.693 365.09 404.266C363.169 405.838 361.247 407.585 359.5 408.983L348.842 417.544L263.06 486.379C259.041 489.524 253.625 489.349 249.782 486.379L164.174 417.194L153.517 408.633C151.769 407.236 149.848 405.489 147.926 404.091C146.004 402.519 144.257 400.946 142.51 399.199C135.347 392.56 129.057 385.048 123.292 377.36L119.099 371.42L115.255 365.305C113.857 363.209 112.809 361.112 111.586 359.016C110.538 356.919 109.14 354.823 108.267 352.552C103.899 343.991 100.405 334.906 97.4347 325.821C91.844 307.476 88.5245 288.433 88.3498 269.39C88.1751 264.498 88.3498 259.955 88.3498 255.413L88.5245 241.611L88.8739 214.181L90.0969 104.289C90.0969 102.542 90.9704 100.794 92.1934 99.7461L109.49 85.7693L113.857 82.2751C114.556 81.751 115.255 81.0522 116.129 80.528C116.828 79.8292 117.701 79.3051 118.575 78.7809C121.894 76.5097 125.388 74.4132 129.057 72.6661C136.395 69.1719 144.257 66.9007 152.468 66.2019C154.39 66.0271 156.661 66.0271 158.408 66.0271H163.999H175.181H264.108V65.8524ZM264.108 77.558H175.006H163.825H158.234C156.312 77.558 154.914 77.558 153.167 77.7327C146.528 78.2569 139.889 80.004 133.949 82.974C130.979 84.3717 128.009 86.1188 125.214 88.2153C124.515 88.7395 123.816 89.2636 123.117 89.7877C122.418 90.3118 121.719 90.836 121.021 91.3601L116.653 94.8543L99.3565 108.831L101.453 104.289L102.676 214.181L103.025 241.611L103.2 255.413V262.226C103.2 264.498 103.375 266.594 103.375 268.865C103.899 286.511 107.393 303.807 112.809 320.405C115.779 328.616 119.099 336.653 123.117 344.34C123.991 346.262 125.214 348.184 126.262 350.106C127.31 352.027 128.358 353.949 129.581 355.696L133.076 361.112L136.919 366.354C142.16 373.167 147.926 379.632 154.39 385.397C155.963 386.969 157.535 388.192 159.282 389.59C161.029 390.988 162.427 392.211 164.349 393.608L175.181 401.994L262.536 468.908H249.258L336.613 401.994L347.445 393.608C349.367 392.211 350.764 390.813 352.511 389.59C354.084 388.192 355.831 386.969 357.403 385.397C363.867 379.806 369.458 373.167 374.874 366.354L378.718 361.112L382.212 355.696C383.435 353.949 384.483 352.027 385.531 350.106C386.58 348.184 387.803 346.437 388.676 344.34C392.695 336.653 396.014 328.616 398.984 320.405C404.575 303.807 407.894 286.336 408.418 268.865C408.593 264.498 408.593 259.955 408.768 255.413L408.943 241.611L409.292 214.181L410.515 104.289L412.612 108.831L396.888 95.9026L392.869 92.7577C391.646 91.7095 390.249 90.4865 389.026 89.613C386.58 87.6912 383.959 85.9441 381.338 84.5464C375.922 81.5763 370.157 79.4798 364.042 78.2568C361.072 77.7327 357.927 77.3833 354.957 77.3833H344.824H264.108V77.558Z" fill="url(#paint1_linear_2_227)"/>
<path opacity="0.25" d="M262.71 65.6777H357.753C372.253 65.6777 386.23 70.919 398.111 80.7028L421.522 99.9209C370.157 133.815 318.792 167.708 267.427 201.777C207.677 223.441 147.751 245.28 88.0003 266.944C88.6991 211.735 89.2233 156.527 89.9221 101.319C97.0852 95.7279 104.423 90.1372 111.586 84.3717C115.604 80.5281 122.418 75.1121 132.027 71.0938C140.064 67.7743 147.227 66.5513 152.294 66.2019C183.741 66.0272 215.189 65.8524 246.637 65.6777H262.71Z" fill="black"/>
<path d="M334.167 323.2C338.01 328.092 348.493 341.37 352.337 356.57C354.258 363.908 354.957 371.944 354.957 371.944C355.481 378.234 355.481 383.65 355.307 388.018C361.072 383.126 367.536 376.661 374.001 368.625C381.863 358.666 387.279 349.232 390.947 341.37C388.851 335.779 385.182 328.092 379.067 320.055C377.32 317.784 371.555 310.446 360.723 301.886C344.3 288.957 333.992 288.433 312.503 273.932C306.213 269.739 301.496 265.895 298.701 263.449L351.463 288.782C351.463 288.782 361.421 122.808 270.398 94.3301C179.374 65.8524 136.57 152.683 136.57 152.683L199.815 180.113L107.743 146.219L112.11 211.211L222.178 219.422C224.099 201.602 238.95 188.324 255.547 187.975C275.814 187.625 292.411 206.843 289.616 225.887C287.519 240.737 273.892 252.617 258.517 253.666C241.046 254.889 224.274 241.785 221.479 222.917L142.685 215.404C143.383 246.852 123.466 267.817 123.466 267.817C129.931 275.854 140.763 273.233 140.763 273.233C141.287 274.281 143.034 278.125 141.636 282.318C141.112 283.89 140.413 285.113 139.714 285.987C133.774 294.897 143.034 296.644 143.034 296.644C135.871 304.332 146.703 306.603 146.703 306.603C145.13 317.784 146.703 323.724 150.197 326.694C156.661 332.11 166.969 329.664 179.199 326.345C182.344 325.471 196.67 321.628 213.093 309.748C220.081 304.681 225.322 299.789 228.991 296.295C227.419 299.265 224.973 303.283 221.304 307.302C217.46 311.495 213.617 314.29 210.647 316.212C213.791 323.025 218.334 335.605 216.936 351.328C213.617 385.222 184.44 403.567 180.597 405.838C180.946 406.013 181.295 406.362 181.645 406.537C206.628 425.58 231.437 444.798 256.421 463.842C266.379 456.154 276.338 448.293 286.471 440.605C292.935 429.424 296.08 419.64 297.827 412.826C302.02 395.88 301.146 381.553 300.273 367.227C299.225 351.154 297.128 343.991 297.652 343.816C298.526 343.641 306.038 374.74 303.767 403.567C303.243 410.38 301.321 419.815 295.381 429.599C292.935 433.792 290.314 436.936 288.393 439.033C308.659 423.484 328.925 408.109 349.192 392.56C344.125 366.528 335.739 346.961 328.925 333.683C319.142 314.639 278.434 262.925 278.434 262.925C285.248 269.739 312.677 296.295 334.167 323.2Z" fill="white"/>
<path d="M255.897 245.978C270.274 245.978 281.928 234.558 281.928 220.471C281.928 206.383 270.274 194.963 255.897 194.963C241.52 194.963 229.865 206.383 229.865 220.471C229.865 234.558 241.52 245.978 255.897 245.978Z" fill="#EB8B0A"/>
<path d="M157.71 224.314V241.087L188.633 224.314H157.71Z" fill="#EB8B0A"/>
<path d="M359.15 167.01H375.398L375.224 161.594C374.525 142.725 369.283 106.385 342.902 74.588C307.087 31.784 257.294 25.8439 235.98 23.398C183.043 17.2831 140.239 35.8024 119.448 47.5079L124.515 56.5929C132.551 52.0504 144.257 46.4597 158.583 41.7425L170.813 73.8892L180.597 70.2202L168.716 38.7724C180.597 35.6277 194.049 33.3564 208.725 32.8323L213.966 75.4615C208.376 76.8592 203.134 78.781 198.068 81.4017L202.785 90.6613C208.55 87.866 214.49 85.7695 220.78 84.5465C226.895 83.3235 233.184 83.1488 239.474 83.6729L240.522 73.3651C235.106 72.8409 229.865 72.8409 224.449 73.5397L219.382 32.8323C224.449 33.007 229.69 33.3565 235.106 33.8806C251.179 35.8024 284.374 39.646 313.9 61.4847L295.905 89.4383C294.333 88.5648 292.586 87.5165 291.013 86.643C282.977 82.4499 274.416 79.1305 265.506 76.8593L262.885 86.9924C270.922 89.0889 278.784 92.059 286.121 95.9026C290.839 98.3486 295.556 101.319 299.924 104.638L306.213 96.252C305.689 95.9026 305.165 95.5532 304.641 95.2038L322.112 67.949C326.654 71.9674 331.022 76.3351 335.215 81.4017C357.403 107.958 363.343 138.182 364.916 156.702H359.674V167.01H359.15Z" fill="black"/>
<path d="M327.004 114.422L342.727 106.036L337.836 96.9508L320.015 106.56C318.093 104.638 316.346 102.891 314.25 100.969L307.261 108.656C315.123 115.819 322.112 124.206 327.702 133.29C333.293 142.55 337.661 152.683 340.456 163.166L350.589 160.545C347.619 149.014 342.902 138.008 336.787 127.874C333.643 123.157 330.498 118.79 327.004 114.422Z" fill="black"/>
<path d="M166.62 97.475L143.558 69.6962L135.521 76.5098L164.523 111.102L188.459 95.5532L182.693 86.8177L166.62 97.475Z" fill="black"/>
<path d="M254.167 44.0497L251.078 75.6975L261.511 76.716L264.6 45.0682L254.167 44.0497Z" fill="black"/>
<path d="M175.705 79.8293C179.95 79.8293 183.392 76.3876 183.392 72.1421C183.392 67.8965 179.95 64.4548 175.705 64.4548C171.459 64.4548 168.017 67.8965 168.017 72.1421C168.017 76.3876 171.459 79.8293 175.705 79.8293Z" fill="black" stroke="black" stroke-width="0.4842" stroke-miterlimit="10"/>
<path d="M121.894 44.3632C117.701 44.3632 114.207 47.8573 114.207 52.0504C114.207 56.2434 117.701 59.7376 121.894 59.7376C126.087 59.7376 129.581 56.2434 129.581 52.0504C129.756 47.8573 126.262 44.3632 121.894 44.3632Z" fill="black" stroke="black" stroke-width="0.4842" stroke-miterlimit="10"/>
<path d="M200.164 78.2567C195.622 78.2567 191.603 82.9739 192.477 85.9439C193.35 88.914 198.592 89.6129 198.941 89.6129C202.261 89.9623 207.153 88.914 207.851 85.9439C208.725 82.9739 204.707 78.2567 200.164 78.2567Z" fill="black" stroke="black" stroke-width="0.4842" stroke-miterlimit="10"/>
<path d="M239.649 70.7444C235.281 70.7444 231.263 74.7627 231.961 78.4316C232.485 81.5764 236.504 83.4982 239.474 83.4982C242.793 83.4982 246.812 81.7511 247.336 78.4316C248.035 74.9374 244.016 70.7444 239.649 70.7444Z" fill="black" stroke="black" stroke-width="0.4842" stroke-miterlimit="10"/>
<path d="M259.566 36.8506C255.372 36.8506 251.878 40.3448 251.878 44.5379C251.878 48.7309 255.372 52.2251 259.566 52.2251C263.759 52.2251 267.253 48.7309 267.253 44.5379C267.253 40.3448 263.759 36.8506 259.566 36.8506Z" fill="black" stroke="black" stroke-width="0.4842" stroke-miterlimit="10"/>
<path d="M348.143 101.493C348.143 97.3001 344.649 93.8059 340.456 93.8059C336.263 93.8059 332.769 97.3001 332.769 101.493C332.769 105.686 336.263 109.18 340.456 109.18C344.649 109.18 348.143 105.686 348.143 101.493Z" fill="black" stroke="black" stroke-width="0.4842" stroke-miterlimit="10"/>
<path d="M359.325 154.081C356.355 154.081 353.734 155.828 352.337 158.449C351.114 155.828 348.493 154.081 345.348 154.081C341.155 154.081 337.661 157.575 337.661 161.768C337.661 165.961 341.155 169.455 345.348 169.455C348.318 169.455 350.939 167.708 352.337 165.088C353.56 167.708 356.18 169.455 359.325 169.455C363.518 169.455 367.012 165.961 367.012 161.768C367.187 157.575 363.693 154.081 359.325 154.081Z" fill="black" stroke="black" stroke-width="0.4842" stroke-miterlimit="10"/>
<path d="M139.715 65.5031C135.521 65.5031 132.027 68.9972 132.027 73.1903C132.027 77.3833 135.521 80.8775 139.715 80.8775C143.908 80.8775 147.402 77.3833 147.402 73.1903C147.402 68.9972 143.908 65.5031 139.715 65.5031Z" fill="black" stroke="black" stroke-width="0.4842" stroke-miterlimit="10"/>
<path d="M175.53 77.2086C178.328 77.2086 180.597 74.9402 180.597 72.142C180.597 69.3438 178.328 67.0754 175.53 67.0754C172.732 67.0754 170.463 69.3438 170.463 72.142C170.463 74.9402 172.732 77.2086 175.53 77.2086Z" fill="#EB8B0A" stroke="url(#paint2_linear_2_227)" stroke-width="0.4842" stroke-miterlimit="10"/>
<path d="M121.719 57.1169C124.518 57.1169 126.786 54.8485 126.786 52.0503C126.786 49.2521 124.518 46.9838 121.719 46.9838C118.921 46.9838 116.653 49.2521 116.653 52.0503C116.653 54.8485 118.921 57.1169 121.719 57.1169Z" fill="#EB8B0A" stroke="url(#paint3_linear_2_227)" stroke-width="0.4842" stroke-miterlimit="10"/>
<path d="M199.989 91.0106C202.788 91.0106 205.056 88.7422 205.056 85.944C205.056 83.1458 202.788 80.8774 199.989 80.8774C197.191 80.8774 194.923 83.1458 194.923 85.944C194.923 88.7422 197.191 91.0106 199.989 91.0106Z" fill="#EB8B0A" stroke="url(#paint4_linear_2_227)" stroke-width="0.4842" stroke-miterlimit="10"/>
<path d="M239.474 83.4981C242.272 83.4981 244.541 81.2298 244.541 78.4316C244.541 75.6334 242.272 73.365 239.474 73.365C236.676 73.365 234.407 75.6334 234.407 78.4316C234.407 81.2298 236.676 83.4981 239.474 83.4981Z" fill="#EB8B0A" stroke="url(#paint5_linear_2_227)" stroke-width="0.4842" stroke-miterlimit="10"/>
<path d="M259.391 49.6044C262.189 49.6044 264.457 47.336 264.457 44.5378C264.457 41.7396 262.189 39.4712 259.391 39.4712C256.593 39.4712 254.324 41.7396 254.324 44.5378C254.324 47.336 256.593 49.6044 259.391 49.6044Z" fill="#EB8B0A" stroke="url(#paint6_linear_2_227)" stroke-width="0.4842" stroke-miterlimit="10"/>
<path d="M340.282 106.56C343.08 106.56 345.348 104.291 345.348 101.493C345.348 98.695 343.08 96.4266 340.282 96.4266C337.483 96.4266 335.215 98.695 335.215 101.493C335.215 104.291 337.483 106.56 340.282 106.56Z" fill="#EB8B0A" stroke="url(#paint7_linear_2_227)" stroke-width="0.4842" stroke-miterlimit="10"/>
<path d="M345.348 166.835C348.146 166.835 350.415 164.566 350.415 161.768C350.415 158.97 348.146 156.702 345.348 156.702C342.55 156.702 340.282 158.97 340.282 161.768C340.282 164.566 342.55 166.835 345.348 166.835Z" fill="#EB8B0A" stroke="url(#paint8_linear_2_227)" stroke-width="0.4842" stroke-miterlimit="10"/>
<path d="M359.15 166.835C361.949 166.835 364.217 164.566 364.217 161.768C364.217 158.97 361.949 156.702 359.15 156.702C356.352 156.702 354.084 158.97 354.084 161.768C354.084 164.566 356.352 166.835 359.15 166.835Z" fill="#EB8B0A" stroke="url(#paint9_linear_2_227)" stroke-width="0.4842" stroke-miterlimit="10"/>
<path d="M139.54 78.2568C142.338 78.2568 144.606 75.9884 144.606 73.1902C144.606 70.392 142.338 68.1237 139.54 68.1237C136.742 68.1237 134.473 70.392 134.473 73.1902C134.473 75.9884 136.742 78.2568 139.54 78.2568Z" fill="#EB8B0A" stroke="url(#paint10_linear_2_227)" stroke-width="0.4842" stroke-miterlimit="10"/>
<path d="M359.15 161.768C362.819 161.768 366.313 161.768 369.982 161.768C369.458 147.617 365.964 110.578 338.884 77.9075C304.466 36.676 255.897 30.9106 235.456 28.6393C180.771 22.1751 138.491 42.7908 122.069 52.0505" stroke="#EB8B0A" stroke-width="2.9495" stroke-miterlimit="10"/>
<path d="M199.989 85.9441C204.532 83.6728 211.171 81.0522 219.382 79.4798C227.419 77.9074 234.407 78.0821 239.474 78.6063" stroke="#EB8B0A" stroke-width="2.9495" stroke-miterlimit="10"/>
<path d="M213.093 27.4164L219.557 81.5765" stroke="#EB8B0A" stroke-width="2.9495" stroke-miterlimit="10"/>
<path d="M263.759 81.7511C270.572 83.4982 279.133 86.2935 288.218 91.1854C293.809 94.1555 298.701 97.3003 302.719 100.27" stroke="#EB8B0A" stroke-width="2.9495" stroke-miterlimit="10"/>
<path d="M345.348 161.768C343.252 153.732 339.408 142.55 332.07 130.495C324.907 118.79 316.87 110.229 310.756 104.638" stroke="#EB8B0A" stroke-width="2.9495" stroke-miterlimit="10"/>
<path d="M320.539 60.087L298.351 94.6796" stroke="#EB8B0A" stroke-width="2.9495" stroke-miterlimit="10"/>
<path d="M185.488 91.1854C178.849 95.5532 172.211 99.9209 165.572 104.289L139.54 73.1903" stroke="#EB8B0A" stroke-width="2.9495" stroke-miterlimit="10"/>
<path d="M161.553 35.2783L175.53 72.1421" stroke="#EB8B0A" stroke-width="2.9495" stroke-miterlimit="10"/>
<path d="M259.391 44.5381L256.246 76.3353" stroke="#EB8B0A" stroke-width="2.9495" stroke-miterlimit="10"/>
<path d="M340.282 101.493L320.539 112.151" stroke="#EB8B0A" stroke-width="2.9495" stroke-miterlimit="10"/>
<defs>
<linearGradient id="paint0_linear_2_227" x1="256.553" y1="477.554" x2="256.553" y2="71.6963" gradientUnits="userSpaceOnUse">
<stop stop-color="white"/>
<stop offset="0.0586592" stop-color="#A5A5A4"/>
<stop offset="0.1419" stop-color="#3F3F3E"/>
<stop offset="0.5749"/>
</linearGradient>
<linearGradient id="paint1_linear_2_227" x1="256.553" y1="488.313" x2="256.553" y2="61.0151" gradientUnits="userSpaceOnUse">
<stop stop-color="#F4B66D"/>
<stop offset="0.1816" stop-color="#ED9527"/>
<stop offset="0.2877" stop-color="#EC8F18"/>
<stop offset="0.4078" stop-color="#EB8B0A"/>
<stop offset="0.6341" stop-color="#D88108"/>
<stop offset="1" stop-color="#CE7C07"/>
</linearGradient>
<linearGradient id="paint2_linear_2_227" x1="175.476" y1="77.6393" x2="175.476" y2="66.5286" gradientUnits="userSpaceOnUse">
<stop stop-color="#F4B66D"/>
<stop offset="0.0698324" stop-color="#F1A64B"/>
<stop offset="0.1425" stop-color="#ED9527"/>
<stop offset="0.243" stop-color="#EC8F18"/>
<stop offset="0.4078" stop-color="#EB8B0A"/>
<stop offset="0.6341" stop-color="#D88108"/>
<stop offset="1" stop-color="#CE7C07"/>
</linearGradient>
<linearGradient id="paint3_linear_2_227" x1="121.802" y1="57.6044" x2="121.802" y2="46.4935" gradientUnits="userSpaceOnUse">
<stop stop-color="#F4B66D"/>
<stop offset="0.0698324" stop-color="#F1A64B"/>
<stop offset="0.1425" stop-color="#ED9527"/>
<stop offset="0.243" stop-color="#EC8F18"/>
<stop offset="0.4078" stop-color="#EB8B0A"/>
<stop offset="0.6341" stop-color="#D88108"/>
<stop offset="1" stop-color="#CE7C07"/>
</linearGradient>
<linearGradient id="paint4_linear_2_227" x1="199.963" y1="91.4905" x2="199.963" y2="80.3797" gradientUnits="userSpaceOnUse">
<stop stop-color="#F4B66D"/>
<stop offset="0.0698324" stop-color="#F1A64B"/>
<stop offset="0.1425" stop-color="#ED9527"/>
<stop offset="0.243" stop-color="#EC8F18"/>
<stop offset="0.4078" stop-color="#EB8B0A"/>
<stop offset="0.6341" stop-color="#D88108"/>
<stop offset="1" stop-color="#CE7C07"/>
</linearGradient>
<linearGradient id="paint5_linear_2_227" x1="239.476" y1="84.0703" x2="239.476" y2="72.9595" gradientUnits="userSpaceOnUse">
<stop stop-color="#F4B66D"/>
<stop offset="0.0698324" stop-color="#F1A64B"/>
<stop offset="0.1425" stop-color="#ED9527"/>
<stop offset="0.243" stop-color="#EC8F18"/>
<stop offset="0.4078" stop-color="#EB8B0A"/>
<stop offset="0.6341" stop-color="#D88108"/>
<stop offset="1" stop-color="#CE7C07"/>
</linearGradient>
<linearGradient id="paint6_linear_2_227" x1="259.325" y1="50.1222" x2="259.325" y2="39.0114" gradientUnits="userSpaceOnUse">
<stop stop-color="#F4B66D"/>
<stop offset="0.0698324" stop-color="#F1A64B"/>
<stop offset="0.1425" stop-color="#ED9527"/>
<stop offset="0.243" stop-color="#EC8F18"/>
<stop offset="0.4078" stop-color="#EB8B0A"/>
<stop offset="0.6341" stop-color="#D88108"/>
<stop offset="1" stop-color="#CE7C07"/>
</linearGradient>
<linearGradient id="paint7_linear_2_227" x1="340.207" y1="107.011" x2="340.207" y2="95.9008" gradientUnits="userSpaceOnUse">
<stop stop-color="#F4B66D"/>
<stop offset="0.0698324" stop-color="#F1A64B"/>
<stop offset="0.1425" stop-color="#ED9527"/>
<stop offset="0.243" stop-color="#EC8F18"/>
<stop offset="0.4078" stop-color="#EB8B0A"/>
<stop offset="0.6341" stop-color="#D88108"/>
<stop offset="1" stop-color="#CE7C07"/>
</linearGradient>
<linearGradient id="paint8_linear_2_227" x1="345.34" y1="167.364" x2="345.34" y2="156.253" gradientUnits="userSpaceOnUse">
<stop stop-color="#F4B66D"/>
<stop offset="0.0698324" stop-color="#F1A64B"/>
<stop offset="0.1425" stop-color="#ED9527"/>
<stop offset="0.243" stop-color="#EC8F18"/>
<stop offset="0.4078" stop-color="#EB8B0A"/>
<stop offset="0.6341" stop-color="#D88108"/>
<stop offset="1" stop-color="#CE7C07"/>
</linearGradient>
<linearGradient id="paint9_linear_2_227" x1="359.191" y1="167.364" x2="359.191" y2="156.253" gradientUnits="userSpaceOnUse">
<stop stop-color="#F4B66D"/>
<stop offset="0.0698324" stop-color="#F1A64B"/>
<stop offset="0.1425" stop-color="#ED9527"/>
<stop offset="0.243" stop-color="#EC8F18"/>
<stop offset="0.4078" stop-color="#EB8B0A"/>
<stop offset="0.6341" stop-color="#D88108"/>
<stop offset="1" stop-color="#CE7C07"/>
</linearGradient>
<linearGradient id="paint10_linear_2_227" x1="139.549" y1="78.6904" x2="139.549" y2="67.5798" gradientUnits="userSpaceOnUse">
<stop stop-color="#F4B66D"/>
<stop offset="0.0698324" stop-color="#F1A64B"/>
<stop offset="0.1425" stop-color="#ED9527"/>
<stop offset="0.243" stop-color="#EC8F18"/>
<stop offset="0.4078" stop-color="#EB8B0A"/>
<stop offset="0.6341" stop-color="#D88108"/>
<stop offset="1" stop-color="#CE7C07"/>
</linearGradient>
</defs>
</svg>
