<svg width="512" height="512" viewBox="0 0 512 512" fill="none" xmlns="http://www.w3.org/2000/svg">
<path d="M264.074 72.7174H355.217C368.958 72.7174 382.525 77.7616 394.005 86.9803L416.443 105.244V264.049C416.443 318.666 393.31 369.629 355.043 399.547L264.248 470.687C264.248 470.687 260.421 473.644 256.594 476.601C252.768 473.644 248.941 470.687 248.941 470.687L158.146 399.547C119.705 369.455 96.7456 318.666 96.7456 264.049V105.244L119.184 86.9803C130.663 77.7616 144.057 72.7174 157.972 72.7174H249.115H264.074Z" fill="url(#paint0_linear_2_226)"/>
<path opacity="0.1" d="M423.923 266.31C423.923 323.188 399.745 376.413 359.566 407.722L264.422 481.993C264.422 481.993 260.421 485.124 256.421 488.255C252.42 485.124 248.419 481.993 248.419 481.993L153.275 407.722C193.629 383.892 233.983 360.237 274.336 336.407C324.082 312.926 374.003 289.618 423.923 266.31Z" fill="white"/>
<path d="M395.223 338.668C392.092 330.667 387.918 323.014 382.699 316.23C379.916 312.578 373.829 305.272 363.566 297.271C360.957 295.184 358.522 293.445 356.087 291.879L356.261 288.574C356.435 286.835 358.696 246.133 349.825 201.084C344.607 174.471 336.432 151.859 325.648 134.118C311.907 111.506 293.817 96.5469 271.901 89.5894C259.204 85.5888 246.854 83.6755 234.852 83.6755C206.326 83.6755 179.54 95.3293 157.276 117.072C142.491 131.682 134.316 146.293 132.577 149.598L102.486 138.466L107.704 215.694L137.969 217.956C137.447 245.09 120.575 263.527 120.401 263.701L117.27 267.006L120.053 270.485C124.054 275.529 130.316 278.312 137.447 278.312H137.621C137.621 279.008 137.621 279.53 137.447 280.225C137.273 280.921 136.925 281.617 136.403 282.139L136.23 282.313L136.056 282.66C132.403 288.052 132.925 292.227 133.968 294.662C134.664 296.054 135.534 297.271 136.403 298.141C135.708 300.402 135.882 302.141 136.403 303.533C137.273 306.49 139.534 308.229 141.622 309.447C140.752 319.361 142.665 326.145 147.362 329.972C150.84 332.928 155.189 334.32 160.755 334.32C166.669 334.32 173.104 332.755 180.932 330.667C185.28 329.624 195.021 326.493 206.848 319.535C211.023 329.45 212.762 339.886 211.892 349.974C208.936 380.413 183.367 397.285 178.322 400.416L171.713 404.417L177.801 409.113L256.421 469.296L290.338 443.031L291.034 441.814L291.382 442.335L348.782 398.503V399.025L353.826 394.85L354.522 394.329L358 391.372C365.132 385.284 371.567 378.674 377.307 371.369C384.265 362.672 390.005 353.279 394.875 343.191L395.745 341.104L395.223 338.668ZM333.475 330.841C333.301 330.493 333.127 330.145 332.779 329.624C339.911 339.364 344.781 348.409 346.868 356.932C348.434 362.846 349.129 369.455 349.303 371.021C345.303 356.932 340.085 343.539 333.475 330.841Z" fill="black"/>
<path d="M264.074 66.8035H345.129H355.217C358.87 66.8035 362.697 67.1514 366.349 67.8471C373.655 69.2386 380.786 71.6737 387.222 75.3264C390.353 77.0658 393.484 79.153 396.441 81.4142C398.006 82.6318 399.224 83.5015 400.441 84.7191L404.442 87.85L420.096 100.721C421.488 101.765 422.183 103.504 422.183 105.07V105.244L423.401 214.651L423.749 241.959L423.923 255.7C423.923 260.222 424.097 264.745 423.923 269.615C423.749 288.574 420.444 307.533 414.878 325.797C411.921 334.842 408.442 343.713 404.094 352.409C403.05 354.671 401.833 356.584 400.789 358.845C399.571 360.932 398.528 363.02 397.136 365.107L393.31 371.195L389.135 377.109C383.395 384.762 377.133 392.241 370.002 398.851C368.263 400.59 366.523 402.156 364.61 403.721C362.697 405.287 360.783 407.026 359.044 408.417L348.434 416.94L263.03 485.124C259.03 488.255 253.638 488.081 249.811 485.124L164.407 416.592L153.797 408.07C152.058 406.678 150.145 404.939 148.231 403.373C146.318 401.808 144.579 400.242 142.839 398.503C135.708 391.893 129.446 384.414 123.706 376.761L119.532 370.847L115.705 364.759C114.313 362.672 113.27 360.584 112.052 358.497C111.009 356.41 109.617 354.323 108.747 352.062C104.399 343.539 100.92 334.494 97.9632 325.449C92.3972 307.186 89.0924 288.226 88.9184 269.267C88.7445 264.397 88.9184 259.874 88.9184 255.352L89.0924 241.611L89.4403 214.303L90.8318 105.244C90.8318 103.504 91.7015 101.765 92.919 100.721L110.139 86.8063L114.487 83.3276C115.183 82.8057 115.879 82.11 116.748 81.5882C117.444 80.8924 118.314 80.3706 119.184 79.8488C122.488 77.5876 125.967 75.5004 129.62 73.761C136.925 70.2822 144.753 68.0211 152.928 67.3253C154.841 67.1514 157.102 67.1514 158.841 67.1514H164.407H175.54H264.074V66.8035ZM264.074 78.6313H175.366H164.234H158.668C156.754 78.6313 155.363 78.6312 153.623 78.8052C147.014 79.327 140.404 81.0664 134.49 84.0233C131.533 85.4148 128.576 87.1542 125.793 89.2414C125.098 89.7633 124.402 90.2851 123.706 90.8069C123.01 91.3287 122.315 91.8505 121.619 92.3723L117.27 95.8511L100.05 109.766L102.138 105.244L103.355 214.651L103.703 241.959L103.877 255.7V262.484C103.877 264.745 104.051 266.832 104.051 269.093C104.573 286.661 108.052 303.881 113.444 320.405C116.401 328.58 119.705 336.581 123.706 344.234C124.576 346.148 125.793 348.061 126.837 349.974C127.881 351.888 128.924 353.801 130.142 355.54L133.62 360.932L137.447 366.15C142.665 372.934 148.405 379.37 154.841 385.11C156.406 386.675 157.972 387.893 159.711 389.284C161.451 390.676 162.842 391.893 164.755 393.285L175.54 401.634L262.508 468.252H249.289L336.258 401.634L347.042 393.285C348.955 391.893 350.347 390.502 352.086 389.284C353.652 387.893 355.391 386.675 356.957 385.11C363.392 379.544 368.958 372.934 374.35 366.15L378.177 360.932L381.656 355.54C382.873 353.801 383.917 351.888 384.961 349.974C386.004 348.061 387.222 346.322 388.092 344.234C392.092 336.581 395.397 328.58 398.354 320.405C403.92 303.881 407.225 286.487 407.747 269.093C407.92 264.745 407.92 260.222 408.094 255.7L408.268 241.959L408.616 214.651L409.834 105.244L411.921 109.766L396.267 96.8947L392.266 93.7638C391.048 92.7202 389.657 91.5027 388.439 90.633C386.004 88.7197 383.395 86.9803 380.786 85.5888C375.394 82.6318 369.654 80.5446 363.566 79.327C360.609 78.8052 357.478 78.4573 354.522 78.4573H344.433H264.074V78.6313Z" fill="url(#paint1_linear_2_226)"/>
<path opacity="0.25" d="M262.682 66.6296H357.305C371.741 66.6296 385.656 71.8478 397.484 81.5883L420.792 100.721C369.654 134.465 318.516 168.209 267.379 202.127C207.892 223.696 148.231 245.438 88.7445 267.006C89.4402 212.042 89.962 157.077 90.6578 102.113C97.7892 96.547 105.095 90.981 112.226 85.241C116.227 81.4144 123.01 76.0223 132.577 72.0217C140.578 68.7169 147.709 67.4994 152.754 67.1515C184.062 66.9775 215.371 66.8036 246.68 66.6296H262.682Z" fill="black"/>
<path d="M333.823 323.014C337.65 327.884 348.086 341.103 351.912 356.236C353.826 363.541 354.522 371.543 354.522 371.543C355.043 377.804 355.043 383.196 354.869 387.545C360.609 382.675 367.045 376.239 373.481 368.238C381.308 358.323 386.7 348.931 390.353 341.103C388.265 335.537 384.613 327.884 378.525 319.883C376.786 317.622 371.046 310.316 360.261 301.793C343.911 288.922 333.649 288.4 312.255 273.963C305.993 269.789 301.297 265.962 298.514 263.527L351.043 288.748C351.043 288.748 360.957 123.507 270.336 95.1554C179.714 66.8035 136.925 153.425 136.925 153.425L199.891 180.733L108.226 146.989L112.574 211.694L222.155 219.869C224.068 202.127 238.853 188.908 255.377 188.56C275.554 188.212 292.078 207.345 289.295 226.304C287.208 241.089 273.64 252.917 258.334 253.961C240.94 255.178 224.242 242.133 221.459 223.348L143.013 215.868C143.709 247.177 123.88 268.05 123.88 268.05C130.316 276.051 141.1 273.442 141.1 273.442C141.622 274.485 143.361 278.312 141.969 282.486C141.448 284.052 140.752 285.269 140.056 286.139C134.142 295.01 143.361 296.749 143.361 296.749C136.23 304.403 147.014 306.664 147.014 306.664C145.448 317.796 147.014 323.71 150.492 326.667C156.928 332.059 167.19 329.624 179.366 326.319C182.497 325.449 196.76 321.622 213.11 309.795C220.068 304.75 225.286 299.88 228.938 296.401C227.373 299.358 224.938 303.359 221.285 307.36C217.458 311.534 213.632 314.317 210.675 316.23C213.806 323.014 218.328 335.537 216.937 351.192C213.632 384.936 184.584 403.199 180.758 405.46C181.106 405.634 181.453 405.982 181.801 406.156C206.674 425.115 231.374 444.249 256.247 463.208C266.161 455.555 276.076 447.727 286.164 440.074C292.6 428.942 295.731 419.202 297.47 412.418C301.644 395.546 300.775 381.283 299.905 367.02C298.861 351.018 296.774 343.886 297.296 343.713C298.166 343.539 305.645 374.499 303.384 403.199C302.862 409.983 300.949 419.375 295.035 429.116C292.6 433.291 289.991 436.421 288.077 438.509C308.254 423.028 328.431 407.722 348.608 392.241C343.563 366.324 335.214 346.843 328.431 333.624C318.69 314.665 278.163 263.179 278.163 263.179C285.12 269.789 312.429 296.401 333.823 323.014Z" fill="white"/>
<path d="M255.899 246.307C270.212 246.307 281.815 234.938 281.815 220.912C281.815 206.887 270.212 195.517 255.899 195.517C241.585 195.517 229.982 206.887 229.982 220.912C229.982 234.938 241.585 246.307 255.899 246.307Z" fill="#EB8B0A"/>
<path d="M157.972 224.565V241.437L188.933 224.565H157.972Z" fill="#EB8B0A"/>
<path d="M375.742 163.339C373.829 121.246 356.435 85.4149 325.822 59.6721C297.47 36.1905 259.725 23.1451 219.372 23.1451C185.106 23.1451 151.188 32.3638 120.923 50.1055L115.531 53.2364L166.321 113.593L170.321 110.288C189.802 94.4597 213.98 85.5889 238.331 85.5889C252.594 85.5889 266.161 88.3719 279.032 94.1118C323.213 113.593 335.562 157.425 337.649 165.948L338.693 170.123L376.09 168.209L375.742 163.339Z" fill="black" stroke="black" stroke-width="0.5262" stroke-miterlimit="10"/>
<path d="M122.314 54.802C225.981 -5.72839 363.74 41.9306 369.306 163.861C359.914 164.383 350.695 164.731 341.302 165.252C339.911 159.513 327.735 110.984 279.902 89.7635C242.679 73.2394 198.325 79.849 165.799 106.635L122.314 54.802Z" fill="#EB8B0A"/>
<defs>
<linearGradient id="paint0_linear_2_226" x1="256.528" y1="476.783" x2="256.528" y2="72.7193" gradientUnits="userSpaceOnUse">
<stop stop-color="white"/>
<stop offset="0.0586592" stop-color="#A5A5A4"/>
<stop offset="0.1419" stop-color="#3F3F3E"/>
<stop offset="0.5749"/>
</linearGradient>
<linearGradient id="paint1_linear_2_226" x1="256.528" y1="487.494" x2="256.528" y2="62.0851" gradientUnits="userSpaceOnUse">
<stop stop-color="#F4B66D"/>
<stop offset="0.1816" stop-color="#ED9527"/>
<stop offset="0.2877" stop-color="#EC8F18"/>
<stop offset="0.4078" stop-color="#EB8B0A"/>
<stop offset="0.6341" stop-color="#D88108"/>
<stop offset="1" stop-color="#CE7C07"/>
</linearGradient>
</defs>
</svg>
