<svg width="512" height="512" viewBox="0 0 512 512" fill="none" xmlns="http://www.w3.org/2000/svg">
<path d="M263.603 69.8005H355.588C369.519 69.8005 383.094 74.8016 394.704 84.0894L417.387 102.486V262.7C417.387 317.712 394.168 369.152 355.409 399.516L263.782 471.317C263.782 471.317 260.031 474.354 256.102 477.39C252.351 474.354 248.421 471.317 248.421 471.317L156.794 399.516C118.036 369.152 94.8161 317.891 94.8161 262.7V102.665L117.5 84.268C128.931 74.9802 142.684 69.9791 156.615 69.9791H248.6H263.603V69.8005Z" fill="url(#paint0_linear_2_229)"/>
<path opacity="0.1" d="M424.889 265.201C424.889 322.714 400.419 376.297 359.874 407.911L263.782 482.749C263.782 482.749 259.674 485.964 255.744 489C251.636 485.785 247.707 482.749 247.707 482.749L151.614 407.911C192.338 383.977 233.061 359.865 273.784 335.931C324.331 312.354 374.699 288.778 424.889 265.201Z" fill="white"/>
<path d="M396.132 338.074C392.917 329.858 388.809 322.356 383.63 315.39C380.95 311.818 374.699 304.316 364.34 296.1C361.661 293.957 359.16 292.171 356.838 290.742L357.017 287.527C357.195 285.741 359.517 244.66 350.587 199.293C345.228 172.323 337.012 149.64 326.296 131.778C312.364 108.916 294.146 93.7344 271.998 86.9472C259.317 83.0177 246.635 80.8744 234.668 80.8744C205.912 80.8744 178.763 92.4841 156.437 114.632C141.433 129.457 133.396 144.103 131.431 147.496L101.067 136.244L106.247 214.118L136.79 216.44C136.254 243.767 119.107 262.343 118.929 262.522L115.714 265.915L118.571 269.487C122.679 274.488 128.752 277.346 136.075 277.346H136.254C136.254 278.061 136.254 278.596 136.075 279.311C135.897 280.025 135.539 280.74 135.003 281.276L134.825 281.454L134.646 281.633C131.074 287.17 131.61 291.278 132.682 293.778C133.217 295.207 134.11 296.458 135.182 297.351C134.468 299.494 134.646 301.459 135.182 302.888C136.075 305.745 138.397 307.71 140.54 308.782C139.647 318.784 141.612 325.571 146.435 329.501C150.007 332.537 154.472 333.966 160.009 333.966C165.903 333.966 172.333 332.358 180.371 330.215C184.657 329.143 194.659 325.928 206.626 318.962C210.913 328.965 212.699 339.503 211.628 349.684C208.591 380.405 182.871 397.373 177.691 400.588L171.083 404.517L177.156 409.161L256.459 469.889L290.573 443.454C290.573 443.454 291.288 442.382 291.288 442.204L291.645 442.74L349.694 398.444V398.98L354.695 394.693L355.409 394.158L358.981 391.121C366.126 385.048 372.734 378.261 378.45 370.938C385.416 362.186 391.31 352.72 396.132 342.539L397.025 340.574L396.132 338.074ZM333.619 330.215C333.44 329.858 333.261 329.501 332.904 328.965C340.227 338.788 344.871 348.076 347.193 356.471C348.622 362.365 349.515 368.973 349.694 370.76C345.586 356.649 340.227 343.075 333.619 330.215Z" fill="black"/>
<path d="M263.603 63.9067H345.407H355.588C359.339 63.9067 363.089 64.264 366.84 64.9784C374.163 66.2287 381.308 68.9078 387.738 72.4801C390.953 74.2662 393.989 76.4095 397.026 78.5528C398.633 79.8031 399.705 80.6961 401.134 81.7678L405.063 84.9828L420.959 97.8428C422.388 98.9144 423.103 100.522 423.103 102.308V102.487L424.353 212.868L424.71 240.553L424.889 254.306C424.889 258.95 425.067 263.415 424.889 268.237C424.71 287.349 421.495 306.46 415.78 324.857C412.743 333.966 409.35 343.075 404.884 351.649C403.813 353.792 402.562 355.935 401.491 358.079C400.419 360.222 399.169 362.365 397.919 364.33L393.989 370.581L389.702 376.475C383.987 384.334 377.736 391.836 370.413 398.445C368.626 400.231 366.84 401.838 364.876 403.446C363.089 405.053 361.125 406.661 359.339 408.09L348.622 416.663L262.353 485.785C258.424 489 252.887 488.822 249.136 485.785L162.867 416.663L152.15 408.09C150.364 406.661 148.399 405.053 146.613 403.446C144.827 401.838 142.862 400.231 141.076 398.445C133.932 391.836 127.681 384.334 121.786 376.475L117.5 370.581L113.57 364.33C112.32 362.365 111.07 360.222 109.998 358.079C108.926 355.935 107.676 353.792 106.604 351.649C102.318 343.075 98.7456 333.966 95.7092 324.857C89.9937 306.46 86.7787 287.349 86.6001 268.237C86.4215 263.415 86.6001 258.771 86.6001 254.306L86.7787 240.553L87.1359 212.868L88.3862 102.487C88.3862 100.701 89.2792 99.093 90.5295 98.0214L107.855 83.9111L112.141 80.3389C112.856 79.8031 113.57 79.0886 114.463 78.5528C115.178 77.8384 116.071 77.3025 116.964 76.7667C120.179 74.4448 123.751 72.3014 127.502 70.5153C134.825 66.9431 142.862 64.6212 151.079 64.0853C153.043 63.9067 155.187 63.9067 157.151 63.9067H162.688H173.941H263.603ZM263.603 75.695H174.119H162.867H157.509C155.722 75.695 154.115 75.695 152.329 75.8737C145.72 76.4095 139.112 78.1956 133.039 81.232C130.002 82.6609 127.145 84.447 124.287 86.4117C123.572 86.9475 122.858 87.4834 122.322 88.0192C121.608 88.555 120.893 89.0908 120.179 89.6267L115.892 93.1989L98.567 107.309L100.71 102.665L101.961 213.047L102.318 240.731L102.496 254.484C102.496 259.128 102.496 263.772 102.854 268.059C103.389 285.741 106.783 303.245 112.32 319.856C115.356 328.072 118.571 336.288 122.679 343.968C123.572 345.933 124.823 347.719 125.894 349.684C126.966 351.649 128.038 353.435 129.288 355.221L132.86 360.758L136.79 365.937C142.148 372.725 147.864 379.333 154.294 385.049C155.901 386.478 157.509 387.907 159.116 389.335C160.902 390.764 162.331 392.015 164.296 393.444L175.191 401.838L262.889 468.996H249.672L337.37 401.838L348.265 393.444C350.229 392.015 351.658 390.764 353.445 389.335C355.052 387.907 356.838 386.656 358.267 385.049C364.697 379.333 370.413 372.725 375.771 365.937L379.7 360.758L383.272 355.221C384.523 353.435 385.594 351.47 386.666 349.684C387.738 347.719 388.988 345.933 389.881 343.968C393.989 336.288 397.383 328.072 400.24 319.856C405.777 303.245 409.171 285.741 409.707 268.059C409.885 263.772 409.885 259.128 410.064 254.484L410.243 240.731L410.6 213.047L411.85 102.665L413.994 107.309L398.097 94.4492L394.168 91.2342C392.917 90.1625 391.489 89.0908 390.238 88.0192C387.738 86.0545 385.237 84.447 382.558 82.8395C377.2 79.8031 371.306 77.6598 365.233 76.5881C362.196 76.0523 359.16 75.695 356.124 75.695H345.943H263.603Z" fill="url(#paint1_linear_2_229)"/>
<path opacity="0.25" d="M262.174 63.728H357.552C372.02 63.728 386.13 68.9077 398.097 78.7313L421.674 98.0213C370.055 132.136 318.437 166.251 266.997 200.365C206.984 222.156 146.792 243.946 86.7786 265.915C87.493 210.367 88.0289 154.998 88.7433 99.4502C96.0664 93.7346 103.211 88.1977 110.534 82.4822C114.642 78.5527 121.429 73.1944 131.074 69.265C139.112 65.8714 146.435 64.7997 151.436 64.2639C183.05 64.0852 214.664 63.9066 246.278 63.728H262.174Z" fill="black"/>
<path d="M333.976 322.535C337.905 327.358 348.443 340.753 352.194 356.114C354.159 363.437 354.873 371.653 354.873 371.653C355.409 377.904 355.409 383.441 355.231 387.728C360.946 382.905 367.555 376.475 373.985 368.259C381.844 358.257 387.381 348.612 390.953 340.932C388.809 335.395 385.237 327.715 378.986 319.499C377.2 317.177 371.484 309.854 360.589 301.28C343.978 288.242 333.797 287.885 312.185 273.239C305.934 268.952 301.112 265.201 298.254 262.7L351.301 288.063C351.301 288.063 361.303 121.241 269.855 92.6631C178.406 64.0853 135.182 151.426 135.182 151.426L198.768 178.932L106.247 144.817L110.534 210.189L221.094 218.405C223.059 200.544 238.062 187.148 254.673 186.791C275.034 186.434 291.824 205.724 288.966 224.835C286.823 239.66 273.248 251.627 257.709 252.698C240.205 253.949 223.416 240.731 220.558 221.977L141.255 214.476C141.969 246.09 121.965 266.987 121.965 266.987C128.395 275.025 139.469 272.524 139.469 272.524C140.005 273.596 141.791 277.347 140.362 281.633C139.826 283.241 139.112 284.491 138.397 285.205C132.503 294.136 141.791 295.922 141.791 295.922C134.646 303.602 145.542 305.924 145.542 305.924C143.934 317.177 145.542 323.071 149.114 326.107C155.544 331.644 165.903 328.965 178.227 325.75C181.442 324.857 195.731 320.928 212.342 309.139C219.308 304.138 224.666 299.137 228.238 295.565C226.631 298.601 224.13 302.531 220.558 306.639C216.807 310.925 212.878 313.783 209.841 315.569C213.056 322.356 217.7 335.038 216.093 350.756C212.878 384.87 183.586 403.267 179.656 405.589C180.013 405.768 180.371 406.125 180.728 406.303C205.733 425.415 230.739 444.705 255.744 463.816C265.747 455.957 275.749 448.277 285.93 440.418C292.36 429.166 295.575 419.342 297.182 412.376C301.469 395.408 300.576 380.941 299.683 366.652C298.611 350.577 296.646 343.254 297.003 343.075C297.897 342.897 305.398 374.154 303.255 403.267C302.719 410.054 300.754 419.699 294.86 429.523C292.36 433.81 289.68 436.846 287.894 438.989C308.256 423.45 328.618 407.911 348.979 392.372C343.799 366.116 335.583 346.647 328.618 333.252C318.794 313.962 277.892 262.165 277.892 262.165C284.858 268.773 312.364 295.386 333.976 322.535Z" fill="white"/>
<path d="M255.387 244.839C269.789 244.839 281.464 233.404 281.464 219.298C281.464 205.192 269.789 193.756 255.387 193.756C240.985 193.756 229.31 205.192 229.31 219.298C229.31 233.404 240.985 244.839 255.387 244.839Z" fill="#2089C1"/>
<path d="M156.615 223.049V240.017L187.872 223.049H156.615Z" fill="#2089C1"/>
<path d="M358.981 167.679H375.235L375.056 162.321C374.342 143.388 369.162 106.773 342.549 74.9804C306.648 31.9352 256.637 26.0411 235.204 23.5405C181.978 17.2891 138.933 36.0433 118.035 47.653L123.215 56.7621C131.431 52.1182 143.041 46.5813 157.508 41.7588L169.654 74.0873L179.478 70.3365L167.511 38.7224C179.478 35.5074 193.052 33.1855 207.698 32.6497L212.878 75.5162C207.341 76.9451 201.983 78.9098 196.803 81.4104L201.447 90.6981C207.162 87.8404 213.235 85.8757 219.486 84.6254C225.738 83.5537 231.989 83.1965 238.241 83.7323L239.134 73.3729C233.775 72.8371 228.417 73.0157 223.059 73.5515L218.057 32.8283C223.237 33.0069 228.417 33.3641 233.954 33.8999C250.029 35.8646 283.429 39.6155 313.257 61.5846L295.039 89.6265C293.431 88.7334 291.824 87.6618 290.216 86.7687C282.179 82.482 273.427 79.0884 264.496 76.9451L261.996 87.1259C270.212 89.2693 278.071 92.127 285.394 96.0565C290.216 98.557 294.86 101.593 299.147 104.808L305.398 96.4137C304.862 96.0565 304.326 95.6992 303.791 95.342L321.294 68.0146C325.76 71.944 330.225 76.4093 334.512 81.589C356.838 108.202 362.911 138.566 364.34 157.32H359.16V167.679H358.981Z" fill="black"/>
<path d="M326.653 114.989L342.371 106.416L337.369 97.1282L319.508 106.773C317.722 104.808 315.758 103.022 313.793 101.236L306.827 108.916C314.865 116.061 321.652 124.456 327.367 133.743C333.083 143.031 337.369 153.212 340.049 163.75L350.229 161.071C347.193 149.461 342.549 138.566 336.298 128.385C333.44 123.741 330.225 119.276 326.653 114.989Z" fill="black"/>
<path d="M165.546 97.8426L142.505 69.9794L134.289 76.7666L163.403 111.596L187.336 96.0565L181.621 87.3046L165.546 97.8426Z" fill="black"/>
<path d="M253.425 44.2767L250.319 76.0978L260.808 77.1217L263.914 45.3006L253.425 44.2767Z" fill="black"/>
<path d="M174.655 80.3387C178.996 80.3387 182.514 76.8202 182.514 72.4798C182.514 68.1395 178.996 64.621 174.655 64.621C170.315 64.621 166.796 68.1395 166.796 72.4798C166.796 76.8202 170.315 80.3387 174.655 80.3387Z" fill="black" stroke="black" stroke-width="0.4758" stroke-miterlimit="10"/>
<path d="M120.715 44.438C116.428 44.438 112.856 48.0102 112.856 52.2969C112.856 56.5835 116.428 60.1557 120.715 60.1557C125.001 60.1557 128.574 56.5835 128.574 52.2969C128.574 48.0102 125.001 44.438 120.715 44.438Z" fill="black" stroke="black" stroke-width="0.4758" stroke-miterlimit="10"/>
<path d="M199.303 78.5527C194.66 78.5527 190.73 83.1966 191.445 86.4116C192.338 89.448 197.517 89.9838 198.053 89.9838C201.447 90.341 206.269 89.2694 207.162 86.4116C207.877 83.1966 203.769 78.5527 199.303 78.5527Z" fill="black" stroke="black" stroke-width="0.4758" stroke-miterlimit="10"/>
<path d="M238.955 71.0511C234.668 71.0511 230.56 75.1592 231.096 78.91C231.632 82.125 235.561 83.9111 238.776 84.0897C241.991 84.0897 246.099 82.3036 246.814 78.91C247.35 75.1592 243.242 71.0511 238.955 71.0511Z" fill="black" stroke="black" stroke-width="0.4758" stroke-miterlimit="10"/>
<path d="M258.959 36.9364C254.673 36.9364 251.1 40.5086 251.1 44.7953C251.1 49.0819 254.673 52.6541 258.959 52.6541C263.246 52.6541 266.818 49.0819 266.818 44.7953C266.818 40.5086 263.067 36.9364 258.959 36.9364Z" fill="black" stroke="black" stroke-width="0.4758" stroke-miterlimit="10"/>
<path d="M347.908 101.951C347.908 97.664 344.335 94.0918 340.049 94.0918C335.762 94.0918 332.19 97.664 332.19 101.951C332.19 106.237 335.762 109.81 340.049 109.81C344.335 109.81 347.908 106.237 347.908 101.951Z" fill="black" stroke="black" stroke-width="0.4758" stroke-miterlimit="10"/>
<path d="M359.16 154.819C356.124 154.819 353.444 156.605 352.194 159.106C350.944 156.605 348.265 154.819 345.228 154.819C340.942 154.819 337.37 158.392 337.37 162.678C337.37 166.965 340.942 170.537 345.228 170.537C348.265 170.537 350.944 168.751 352.194 166.25C353.444 168.751 356.124 170.537 359.16 170.537C363.447 170.537 367.019 166.965 367.019 162.678C367.019 158.392 363.447 154.819 359.16 154.819Z" fill="black" stroke="black" stroke-width="0.4758" stroke-miterlimit="10"/>
<path d="M138.576 65.6929C134.289 65.6929 130.717 69.2651 130.717 73.5517C130.717 77.8384 134.289 81.4106 138.576 81.4106C142.862 81.4106 146.435 77.8384 146.435 73.5517C146.435 69.2651 142.862 65.6929 138.576 65.6929Z" fill="black" stroke="black" stroke-width="0.4758" stroke-miterlimit="10"/>
<path d="M174.476 77.4809C177.337 77.4809 179.656 75.1618 179.656 72.3012C179.656 69.4405 177.337 67.1215 174.476 67.1215C171.616 67.1215 169.297 69.4405 169.297 72.3012C169.297 75.1618 171.616 77.4809 174.476 77.4809Z" fill="#2089C1" stroke="#2189C2" stroke-width="0.4758" stroke-miterlimit="10"/>
<path d="M120.536 57.4765C123.397 57.4765 125.716 55.1575 125.716 52.2968C125.716 49.4361 123.397 47.1171 120.536 47.1171C117.675 47.1171 115.356 49.4361 115.356 52.2968C115.356 55.1575 117.675 57.4765 120.536 57.4765Z" fill="#2089C1" stroke="#2189C2" stroke-width="0.4758" stroke-miterlimit="10"/>
<path d="M199.125 91.4125C201.985 91.4125 204.304 89.0935 204.304 86.2328C204.304 83.3721 201.985 81.0531 199.125 81.0531C196.264 81.0531 193.945 83.3721 193.945 86.2328C193.945 89.0935 196.264 91.4125 199.125 91.4125Z" fill="#2089C1" stroke="#2189C2" stroke-width="0.4758" stroke-miterlimit="10"/>
<path d="M238.776 84.0898C241.637 84.0898 243.956 81.7707 243.956 78.9101C243.956 76.0494 241.637 73.7303 238.776 73.7303C235.916 73.7303 233.597 76.0494 233.597 78.9101C233.597 81.7707 235.916 84.0898 238.776 84.0898Z" fill="#2089C1" stroke="#2189C2" stroke-width="0.4758" stroke-miterlimit="10"/>
<path d="M258.781 49.9749C261.641 49.9749 263.961 47.6559 263.961 44.7952C263.961 41.9345 261.641 39.6155 258.781 39.6155C255.92 39.6155 253.601 41.9345 253.601 44.7952C253.601 47.6559 255.92 49.9749 258.781 49.9749Z" fill="#2089C1" stroke="#2189C2" stroke-width="0.4758" stroke-miterlimit="10"/>
<path d="M339.87 107.13C342.731 107.13 345.05 104.811 345.05 101.951C345.05 99.09 342.731 96.771 339.87 96.771C337.009 96.771 334.69 99.09 334.69 101.951C334.69 104.811 337.009 107.13 339.87 107.13Z" fill="#2089C1" stroke="#2189C2" stroke-width="0.4758" stroke-miterlimit="10"/>
<path d="M345.05 167.679C347.91 167.679 350.229 165.36 350.229 162.5C350.229 159.639 347.91 157.32 345.05 157.32C342.189 157.32 339.87 159.639 339.87 162.5C339.87 165.36 342.189 167.679 345.05 167.679Z" fill="#2089C1" stroke="#2189C2" stroke-width="0.4758" stroke-miterlimit="10"/>
<path d="M358.981 167.679C361.842 167.679 364.161 165.36 364.161 162.5C364.161 159.639 361.842 157.32 358.981 157.32C356.121 157.32 353.802 159.639 353.802 162.5C353.802 165.36 356.121 167.679 358.981 167.679Z" fill="#2089C1" stroke="#2189C2" stroke-width="0.4758" stroke-miterlimit="10"/>
<path d="M138.397 78.5527C141.258 78.5527 143.577 76.2336 143.577 73.373C143.577 70.5123 141.258 68.1932 138.397 68.1932C135.536 68.1932 133.217 70.5123 133.217 73.373C133.217 76.2336 135.536 78.5527 138.397 78.5527Z" fill="#2089C1" stroke="#2189C2" stroke-width="0.4758" stroke-miterlimit="10"/>
<path d="M358.981 162.5C362.554 162.5 366.126 162.5 369.877 162.5C369.341 148.211 365.947 111.06 338.62 78.1956C303.969 36.7579 255.209 31.0424 234.49 28.7204C179.478 22.2904 136.968 43.0093 120.536 52.297" stroke="#2089C1" stroke-width="2.8981" stroke-miterlimit="10"/>
<path d="M199.125 86.2329C203.769 83.9109 210.377 81.2318 218.593 79.6243C226.809 78.1954 233.775 78.1954 238.776 78.7312" stroke="#2089C1" stroke-width="2.8981" stroke-miterlimit="10"/>
<path d="M212.163 27.47L218.772 81.9462" stroke="#2089C1" stroke-width="2.8981" stroke-miterlimit="10"/>
<path d="M263.246 82.125C270.212 83.9111 278.607 86.7689 287.716 91.5914C293.431 94.6278 298.254 97.8427 302.183 100.701" stroke="#2089C1" stroke-width="2.8981" stroke-miterlimit="10"/>
<path d="M345.05 162.5C342.906 154.462 338.977 143.21 331.654 131.064C324.51 119.276 316.472 110.702 310.221 105.166" stroke="#2089C1" stroke-width="2.8981" stroke-miterlimit="10"/>
<path d="M320.223 60.3341L297.896 94.9846" stroke="#2089C1" stroke-width="2.8981" stroke-miterlimit="10"/>
<path d="M184.479 91.5911C177.87 95.8778 171.083 100.343 164.474 104.63L138.397 73.3728" stroke="#2089C1" stroke-width="2.8981" stroke-miterlimit="10"/>
<path d="M160.545 35.3286L174.477 72.301" stroke="#2089C1" stroke-width="2.8981" stroke-miterlimit="10"/>
<path d="M258.781 44.795L255.566 76.5878" stroke="#2089C1" stroke-width="2.8981" stroke-miterlimit="10"/>
<path d="M339.87 101.95L320.223 112.488" stroke="#2089C1" stroke-width="2.8981" stroke-miterlimit="10"/>
<defs>
<linearGradient id="paint0_linear_2_229" x1="256.039" y1="477.555" x2="256.039" y2="69.8609" gradientUnits="userSpaceOnUse">
<stop stop-color="white"/>
<stop offset="0.0586592" stop-color="#A5A5A4"/>
<stop offset="0.1419" stop-color="#3F3F3E"/>
<stop offset="0.5749"/>
</linearGradient>
<linearGradient id="paint1_linear_2_229" x1="256.039" y1="488.362" x2="256.039" y2="59.1316" gradientUnits="userSpaceOnUse">
<stop stop-color="#A2C7E1"/>
<stop offset="0.1536" stop-color="#74B0D3"/>
<stop offset="0.2989" stop-color="#469FC8"/>
<stop offset="0.4944" stop-color="#409DC7"/>
<stop offset="0.7514" stop-color="#0090BE"/>
<stop offset="1" stop-color="#0086B7"/>
</linearGradient>
</defs>
</svg>
