<svg width="512" height="512" viewBox="0 0 512 512" fill="none" xmlns="http://www.w3.org/2000/svg">
<path d="M263.222 72.03H354.826C368.785 72.03 382.221 77.0901 393.737 86.3378L416.42 104.659V264.312C416.42 319.101 393.213 370.399 354.652 400.585L263.396 472.124C263.396 472.124 259.558 475.09 255.719 478.057C251.88 475.09 248.042 472.124 248.042 472.124L156.786 400.585C118.225 370.399 95.0182 319.275 95.0182 264.312V104.659L117.701 86.3378C129.217 77.0901 142.653 72.03 156.611 72.03H248.216H263.222Z" fill="url(#paint0_linear_2_224)"/>
<path opacity="0.1" d="M423.922 266.581C423.922 323.812 399.669 377.204 359.189 408.612L263.571 483.117C263.571 483.117 259.558 486.257 255.544 489.398C251.531 486.257 247.518 483.117 247.518 483.117L151.9 408.612C192.555 384.707 233.036 360.803 273.691 336.898C323.594 313.517 373.845 290.136 423.922 266.581Z" fill="white"/>
<path d="M395.132 339.341C391.992 331.315 387.804 323.637 382.569 316.833C379.778 313.168 373.671 305.84 363.376 297.639C360.759 295.545 358.316 293.8 355.873 292.23L356.048 288.915C356.222 287.17 358.491 246.166 349.592 200.975C344.357 174.278 336.156 151.595 325.338 133.623C311.554 110.766 293.408 95.76 271.248 88.9551C258.511 84.942 246.122 83.0227 234.083 83.0227C205.467 83.0227 178.422 94.7132 156.262 116.698C141.431 131.355 133.231 146.012 131.486 149.501L101.125 138.334L106.36 215.98L136.72 218.249C136.197 245.468 119.097 263.964 118.923 264.138L115.782 267.453L118.574 270.943C122.587 276.003 128.868 278.795 136.022 278.795H136.197C136.197 279.493 136.197 280.016 136.022 280.714C135.848 281.412 135.499 282.11 134.975 282.633L134.801 282.808L134.626 282.982C130.962 288.391 131.486 292.579 132.533 295.022C133.23 296.418 134.103 297.639 134.975 298.512C134.277 300.78 134.452 302.525 134.975 303.921C135.848 306.887 138.116 308.632 140.21 309.853C139.337 319.799 141.257 326.604 146.142 330.617C149.632 333.583 153.994 334.979 159.578 334.979C165.51 334.979 171.966 333.409 179.818 331.315C184.18 330.268 193.951 327.127 205.991 320.148C210.178 330.093 211.923 340.563 211.051 350.857C208.085 381.392 182.435 398.492 177.201 401.458L170.57 405.471L176.677 410.182L255.719 470.728L289.744 444.381L290.441 443.16L290.79 443.683L348.545 399.538V400.062L353.605 395.874L354.303 395.351L357.793 392.385C364.947 386.278 371.402 379.473 377.335 372.319C384.314 363.595 390.247 353.998 394.958 344.052L395.83 341.958L395.132 339.341ZM333.016 331.489C332.841 331.14 332.667 330.791 332.318 330.268C339.472 340.039 344.357 349.287 346.451 357.662C348.021 363.594 348.719 370.225 348.894 371.97C344.881 357.662 339.472 344.227 333.016 331.489Z" fill="black"/>
<path d="M263.222 66.0976H344.706H354.826C358.491 66.0976 362.329 66.4465 365.993 67.1445C373.322 68.5403 380.476 70.9831 386.932 74.6473C390.247 76.3921 393.213 78.486 396.179 80.7543C397.75 81.9757 398.971 82.8481 400.193 84.0695L404.206 87.2102L420.084 100.122C421.48 101.169 422.178 102.914 422.178 104.484V104.659L423.399 214.584L423.748 242.153L423.922 255.937C423.922 260.474 424.097 265.01 423.922 269.896C423.748 288.915 420.433 307.934 414.849 326.255C411.883 335.328 408.393 344.401 404.031 352.951C402.984 355.219 401.763 357.138 400.716 359.407C399.495 361.501 398.448 363.595 397.052 365.688L393.213 371.795L389.025 377.728C383.267 385.405 376.986 393.082 369.832 399.538C368.087 401.283 366.168 402.854 364.423 404.424C362.504 405.994 360.584 407.739 358.84 409.135L348.021 417.685L262.175 486.432C258.162 489.573 252.753 489.398 248.914 486.432L163.067 417.685L152.249 409.135C150.505 407.739 148.585 405.994 146.666 404.424C144.747 402.854 143.002 401.283 141.257 399.538C134.103 392.908 127.821 385.405 122.063 377.728L117.876 371.795L114.037 365.688C112.641 363.595 111.594 361.501 110.373 359.407C109.326 357.313 107.93 355.219 107.058 352.951C102.696 344.401 99.2059 335.328 96.2397 326.255C90.6562 307.934 87.3409 288.915 87.1664 269.896C86.992 265.01 87.1664 260.474 87.1664 255.937L87.3409 242.153L87.6899 214.584L88.9113 104.659C88.9113 102.914 89.7837 101.169 91.0051 100.122L108.279 85.9888L112.641 82.4991C113.339 81.9757 114.037 81.2777 114.91 80.7543C115.608 80.0563 116.48 79.5329 117.352 79.0094C120.668 76.7411 124.157 74.6473 127.821 72.728C135.15 69.2383 143.176 66.97 151.202 66.272C153.122 66.0976 155.39 66.0976 157.309 66.0976H162.893H174.06H263.222ZM263.222 77.9626H174.06H162.893H157.309C155.39 77.9626 153.994 77.9625 152.249 78.137C145.619 78.6604 138.989 80.4053 133.056 83.3715C130.09 84.7674 127.124 86.5123 124.332 88.6061C123.634 89.1295 122.936 89.653 122.238 90.1765C121.54 90.7 120.842 91.2235 120.144 91.7469L115.782 95.2366L98.508 109.37L100.602 104.833L101.823 214.759L102.172 242.327L102.347 256.112V262.917C102.347 265.185 102.521 267.279 102.521 269.547C103.045 287.17 106.534 304.619 111.943 321.195C114.91 329.395 118.225 337.596 122.238 345.274C123.11 347.193 124.332 349.112 125.379 351.032C126.426 352.951 127.473 354.87 128.694 356.615L132.184 362.024L136.022 367.259C141.257 374.064 147.015 380.694 153.471 386.278C155.041 387.848 156.612 389.069 158.356 390.465C160.101 391.861 161.497 393.082 163.416 394.478L174.409 402.854L261.826 469.681H248.565L335.982 402.854L346.975 394.478C348.894 393.082 350.29 391.687 352.035 390.465C353.78 389.069 355.35 387.848 356.92 386.278C363.376 380.694 368.96 374.064 374.369 367.259L378.207 362.024L381.697 356.615C382.918 354.87 383.965 352.951 385.012 351.032C386.059 349.112 387.281 347.367 388.153 345.274C392.166 337.596 395.481 329.395 398.448 321.195C404.031 304.619 407.346 287.17 407.87 269.547C407.87 267.279 408.044 265.185 408.044 262.917V256.112L408.219 242.327L408.568 214.759L409.789 104.833L411.883 109.37L396.005 96.4579L391.992 93.3172C390.77 92.2703 389.374 91.0489 388.153 90.1765C385.71 88.2572 383.093 86.5123 380.476 85.1164C375.067 82.1501 369.309 79.8819 363.202 78.835C360.235 78.3115 357.095 77.9626 354.128 77.9626H344.008H263.222Z" fill="url(#paint1_linear_2_224)"/>
<path opacity="0.25" d="M261.826 65.9231H356.92C371.402 65.9231 385.361 71.1577 397.401 80.9289L420.956 100.122C369.483 134.147 318.185 167.997 266.712 202.021C206.863 223.832 147.015 245.468 87.1664 267.279C87.8644 211.967 88.3878 156.83 89.0858 101.518C96.2397 95.9346 103.568 90.1765 110.722 84.593C114.91 80.7543 121.54 75.3453 131.311 71.3322C139.337 68.017 146.491 66.7956 151.726 66.4466C183.133 66.2722 214.715 66.0976 246.122 65.9231H261.826Z" fill="black"/>
<path d="M333.365 323.637C337.203 328.523 347.673 341.784 351.511 357.139C353.431 364.467 354.128 372.668 354.128 372.668C354.652 378.949 354.652 384.358 354.477 388.72C360.235 383.835 366.691 377.379 373.322 369.352C381.174 359.407 386.583 349.81 390.247 342.133C388.153 336.549 384.489 328.872 378.382 320.846C376.637 318.577 370.879 311.249 360.061 302.699C343.485 289.613 333.365 289.264 311.903 274.607C305.622 270.42 300.911 266.581 297.944 264.138L350.639 289.438C350.639 289.438 360.584 123.329 269.503 94.7131C178.422 66.0975 135.499 153.166 135.499 153.166L198.837 180.56L106.709 146.71L111.071 211.793L221.171 219.993C223.09 202.196 237.921 188.761 254.672 188.586C274.912 188.237 291.663 207.43 288.871 226.449C286.777 241.28 273.167 253.145 257.813 254.192C240.364 255.414 223.614 242.327 220.822 223.483L141.955 215.98C142.653 247.387 122.761 268.326 122.761 268.326C129.217 276.352 140.21 273.735 140.21 273.735C140.733 274.782 142.478 278.62 141.082 282.808C140.559 284.378 139.861 285.6 139.163 286.472C133.23 295.371 142.478 297.116 142.478 297.116C135.324 304.793 146.142 307.061 146.142 307.061C144.572 318.228 146.142 324.161 149.632 327.127C156.088 332.536 166.383 330.093 178.597 326.778C181.737 325.906 196.045 322.067 212.621 310.202C219.601 305.142 224.835 300.256 228.499 296.767C226.929 299.733 224.486 303.746 220.822 307.759C216.983 311.947 213.145 314.913 210.178 316.658C213.319 323.463 218.03 336.026 216.46 351.73C213.145 385.754 184.006 404.075 180.167 406.343C180.516 406.692 180.865 406.867 181.214 407.216C206.165 426.235 231.117 445.428 256.068 464.447C266.014 456.769 276.134 448.918 286.079 441.24C292.535 430.073 295.676 420.128 297.421 413.323C301.608 396.398 300.911 382.09 300.038 367.782C298.991 351.729 296.897 344.401 297.421 344.401C298.293 344.227 305.796 375.285 303.528 404.249C303.004 411.054 301.085 420.477 295.153 430.422C292.71 434.61 289.918 437.751 288.173 439.844C308.413 424.315 328.828 408.786 349.068 393.431C344.008 367.433 335.633 347.891 328.828 334.455C318.882 315.262 278.227 263.789 278.227 263.789C284.334 270.245 311.729 296.767 333.365 323.637Z" fill="white"/>
<path d="M255.021 246.515C269.379 246.515 281.019 235.11 281.019 221.04C281.019 206.971 269.379 195.565 255.021 195.565C240.663 195.565 229.023 206.971 229.023 221.04C229.023 235.11 240.663 246.515 255.021 246.515Z" fill="#E30613"/>
<path d="M156.611 224.704V241.629L187.67 224.704H156.611Z" fill="#E30613"/>
<path d="M375.416 163.111C373.496 120.711 356.048 84.7674 325.164 58.9437C296.723 35.2137 258.685 22.3018 218.205 22.3018C183.831 22.3018 149.632 31.724 119.272 49.347L113.863 52.4878L164.987 113.209L169 109.893C188.542 94.0152 212.796 85.1164 237.398 85.1164C251.706 85.1164 265.49 88.0827 278.227 93.6662C322.721 113.383 335.11 157.353 337.029 165.903L338.076 170.091L375.59 168.171L375.416 163.111Z" fill="black" stroke="black" stroke-width="0.5272" stroke-miterlimit="10"/>
<path d="M120.668 53.8837C224.835 -7.01154 363.376 40.9718 368.96 163.46C359.537 163.984 350.29 164.333 340.868 164.856C339.472 159.098 327.083 110.242 279.1 88.9551C241.76 72.3791 197.266 79.0095 164.463 105.88L120.668 53.8837Z" fill="#E30613"/>
<defs>
<linearGradient id="paint0_linear_2_224" x1="255.656" y1="478.177" x2="255.656" y2="72.0491" gradientUnits="userSpaceOnUse">
<stop stop-color="white"/>
<stop offset="0.0586592" stop-color="#A5A5A4"/>
<stop offset="0.1419" stop-color="#3F3F3E"/>
<stop offset="0.5749"/>
</linearGradient>
<linearGradient id="paint1_linear_2_224" x1="255.656" y1="488.942" x2="255.656" y2="61.3607" gradientUnits="userSpaceOnUse">
<stop stop-color="#F7B39A"/>
<stop offset="0.0586592" stop-color="#F18B6C"/>
<stop offset="0.1313" stop-color="#ED6B4C"/>
<stop offset="0.2151" stop-color="#E94D33"/>
<stop offset="0.2821" stop-color="#E63323"/>
<stop offset="0.6034" stop-color="#E30613"/>
</linearGradient>
</defs>
</svg>
