<svg width="128" height="128" viewBox="0 0 128 128" fill="none" xmlns="http://www.w3.org/2000/svg">
<path d="M52.1 127.2C39.8 127.2 29.7 117.2 29.6 104.9L29.4 75.8C27.6 76 26 76.1 24.4 76.1C9.00001 76.1 1.30001 65.4 0.800007 43.4C0.600007 31 4.10001 20.8 11.4 13C16.4 7.7 25.6 1.2 40.5 0.800003C41 0.800003 41.6 0.800003 42.3 0.800003C50.3 0.800003 61.8 2.7 71.3 12C80.5 21 82.7 32.1 83.2 38.3C84 38.2 84.8 38.1 85.6 38.1C89.6 38.1 93.5 39.4 96.6 41.8L97.1 41.4C99.9 39.4 103.1 38.3 106.5 38.3C109.9 38.3 113.2 39.4 116 41.4L118.5 43.2C121.6 45.4 124 48.3 125.5 51.6C126.5 53.8 127 55.6 127 57.3V103.7C127 116.7 116.5 127.2 103.5 127.2H52.1Z" fill="#A4B1CD"/>
<path d="M32.3 72.2C16.6 75.3 4.5 71.1 3.8 43.3C3.7 37.9 3.8 25.3 13.5 15.1C23.7 4.40001 37.2 3.90001 40.6 3.80001C44.6 3.70001 58.3 3.50001 69.2 14.1C80.4 25 80.4 39.2 80.3 41.7L83.2 41.2C87.6 40.5 92.2 41.8 95.5 44.7L96.4 45.5L98.8 43.7C103.4 40.4 109.6 40.4 114.2 43.7L116.7 45.5C119.3 47.4 121.4 49.8 122.8 52.7C123.5 54.1 124 55.7 124 57.1V103.5C124 114.8 114.8 124 103.5 124H52.1C41.4 124 32.7 115.4 32.6 104.7L32.3 72.2Z" fill="#141D2B"/>
<path d="M50.1 105.9V107.9C50.1 108 50.2 108.1 50.3 108.1H105.8C105.9 108.1 106 108 106 107.9V105.9C106 105.8 106.1 105.7 106.2 105.7H108.6C108.7 105.7 108.8 105.6 108.8 105.5V94.5C108.8 94.4 108.7 94.3 108.6 94.3H106.6C106.5 94.3 106.4 94.2 106.4 94.1L106.3 87.4C106.3 87.3 106.4 87.1 106.5 87.1H108.6C108.7 87.1 108.8 87 108.8 86.9V76.4C108.8 76.3 108.7 76.2 108.6 76.2H106.8C106.7 76.2 106.6 76.1 106.6 76L106.5 71.2C106.5 71.1 106.6 71 106.7 71L108.7 70.7C108.8 70.7 108.9 70.6 108.9 70.5V60C108.9 59.9 108.8 59.8 108.7 59.8H107C106.9 59.8 106.8 59.7 106.8 59.6V57.9C106.8 57.7 106.6 57.6 106.4 57.7L98.7 63.9C98.6 64 98.6 64.2 98.7 64.3L99.9 65.5C100 65.6 100 65.8 99.9 65.9L92.1 71.9C92 72 92 72.2 92.1 72.3L94.8 74.3C94.9 74.4 94.9 74.6 94.8 74.7L75.3 85.8C75.1 85.9 74.8 85.7 75 85.4L81.4 75C81.5 74.9 81.4 74.7 81.3 74.6L79.1 73.5C79 73.4 78.9 73.3 79 73.1L85 64.6C85.1 64.5 85 64.3 84.9 64.2L82.8 63.5C82.7 63.5 82.6 63.3 82.7 63.1L86.1 57.6C86.2 57.4 86.1 57.2 85.9 57.2H50.1V57.8H48.3C48.2 57.8 48.1 57.9 48.1 58V60H47.6V71C47.6 71.1 47.7 71.2 47.8 71.2H50.1C50.2 71.2 50.3 71.3 50.3 71.4V75.6C50.3 75.7 50.2 75.8 50.1 75.9H47.8C47.7 75.9 47.6 76 47.6 76.1V86.7C47.6 86.8 47.7 86.9 47.8 86.9H50.1C50.2 86.9 50.3 87 50.3 87.1V93.7C50.3 93.8 50.2 93.9 50.1 93.9H47.8C47.7 93.9 47.6 94 47.6 94.1V104.6C47.6 104.7 47.7 104.8 47.8 104.8H49.8C50 105.6 50.1 105.7 50.1 105.9Z" fill="#E8E818"/>
<path d="M24.4 51.3C24.4 49.9 24.3 47.9 24.3 45.5C24.3 42.2 24.3 40.6 24.4 39.6C24.5 38.5 25.2 32.6 30.4 28.6C34.8 25.2 39.9 25.1 41.7 25C43.5 25 50.9 24.7 55.9 29.7C59.5 33.3 60 38.1 60.3 40.4C60.5 42.3 60.5 45.1 60.5 45.9C60.5 48.2 60.4 50.1 60.3 51.4" stroke="#E8E818" stroke-width="9.9008" stroke-miterlimit="2.5" stroke-linecap="round" stroke-linejoin="round"/>
</svg>
