<svg width="128" height="128" viewBox="0 0 128 128" fill="none" xmlns="http://www.w3.org/2000/svg">
<path d="M52.5 125.1C40.6 125.1 30.8 115.4 30.7 103.5L30.5 75.5C28.8 75.7 27.3 75.8 25.8 75.8C11 75.8 3.5 65.4 3 44.1C2.7 32.1 6.2 22.2 13.2 14.8C18 9.59999 26.9 3.29999 41.3 2.89999C41.8 2.89999 42.4 2.89999 43.1 2.89999C50.8 2.89999 61.9 4.79999 71.1 13.7C80 22.4 82.2 33 82.7 39C83.5 38.9 84.2 38.9 85 38.9C88.9 38.9 92.6 40.2 95.6 42.4L96.1 42.1C98.8 40.2 102 39.1 105.3 39.1C108.6 39.1 111.8 40.1 114.5 42.1L116.9 43.9C119.9 46.1 122.2 48.9 123.7 52C124.7 54.1 125.1 55.9 125.1 57.5V102.3C125.1 114.9 114.9 125.1 102.3 125.1H52.5Z" fill="#A4B1CD"/>
<path d="M33.4 71.9C18.2 74.9 6.5 70.8 5.9 44C5.8 38.8 5.9 26.7 15.3 16.8C25.1 6.39999 38.1 5.99999 41.4 5.89999C45.3 5.79999 58.5 5.59999 69 15.9C79.8 26.4 79.8 40.1 79.7 42.5L82.5 42C86.8 41.3 91.1 42.6 94.4 45.4L95.3 46.2L97.7 44.5C102.1 41.3 108.1 41.3 112.5 44.5L114.9 46.3C117.4 48.1 119.4 50.5 120.8 53.3C121.4 54.7 122 56.2 122 57.6V102.4C122 113.3 113.1 122.2 102.2 122.2H52.5C42.2 122.2 33.8 113.9 33.7 103.5L33.4 71.9Z" fill="#141D2B"/>
<path d="M50.6 104.4V106.3C50.6 106.4 50.7 106.5 50.8 106.5H104.3C104.4 106.5 104.5 106.4 104.5 106.3V104.4C104.5 104.3 104.6 104.2 104.7 104.2H107C107.1 104.2 107.2 104.1 107.2 104V93.3C107.2 93.2 107.1 93.1 107 93.1H105.1C105 93.1 104.9 93 104.9 92.9L104.8 86.5C104.8 86.4 104.9 86.2 105 86.2H107C107.1 86.2 107.2 86.1 107.2 86V76C107.2 75.9 107.1 75.8 107 75.8H105.2C105.1 75.8 105 75.7 105 75.6L104.9 71C104.9 70.9 105 70.8 105.1 70.8L107 70.5C107.1 70.5 107.2 70.4 107.2 70.3V60.3C107.2 60.2 107.1 60.1 107 60.1H105.4C105.3 60.1 105.2 60 105.2 59.9V58.3C105.2 58.1 105 58 104.8 58.1L97.4 64.1C97.3 64.2 97.3 64.4 97.4 64.5L98.6 65.7C98.7 65.8 98.7 66 98.6 66.1L91.1 71.9C91 72 91 72.2 91.1 72.3L93.7 74.2C93.8 74.3 93.8 74.5 93.7 74.6L74.9 85C74.7 85.1 74.4 84.9 74.6 84.6L80.8 74.6C80.9 74.5 80.8 74.3 80.7 74.2L78.6 73.1C78.5 73 78.4 72.9 78.5 72.7L84.3 64.5C84.4 64.4 84.3 64.2 84.2 64.1L82.2 63.4C82.1 63.4 82 63.2 82.1 63L85.4 57.7C85.5 57.5 85.4 57.3 85.2 57.3H50.6V57.9H48.8C48.7 57.9 48.6 58 48.6 58.1V60.1H48.1V71C48.1 71.1 48.2 71.2 48.3 71.2H50.5C50.6 71.2 50.7 71.3 50.7 71.4V75.5C50.7 75.6 50.6 75.7 50.5 75.8H48.2C48.1 75.8 48 75.9 48 76V86.3C48 86.4 48.1 86.5 48.2 86.5H50.4C50.5 86.5 50.6 86.6 50.6 86.7V93.1C50.6 93.2 50.5 93.3 50.4 93.3H48.2C48.1 93.3 48 93.4 48 93.5V103.6C48 103.7 48.1 103.8 48.2 103.8H50.2C50.5 104.1 50.6 104.3 50.6 104.4Z" fill="#B38D43"/>
<path d="M25.8 51.8C25.8 50.5 25.7 48.5 25.7 46.2C25.7 43 25.7 41.4 25.8 40.5C25.9 39.4 26.6 33.8 31.6 29.9C35.8 26.7 40.7 26.5 42.5 26.5C44.2 26.5 51.3 26.2 56.2 31C59.7 34.4 60.2 39.1 60.4 41.3C60.6 43.2 60.6 45.8 60.6 46.6C60.6 48.8 60.5 50.6 60.4 51.9" stroke="#B38D43" stroke-width="9.5571" stroke-miterlimit="2.5" stroke-linecap="round" stroke-linejoin="round"/>
</svg>
