<svg width="128" height="128" viewBox="0 0 128 128" fill="none" xmlns="http://www.w3.org/2000/svg">
<path d="M52.2 126.3C40.1 126.3 30.1 116.4 30 104.3L29.8 75.6C28.1 75.8 26.5 75.9 24.9 75.9C9.80001 75.9 2.20001 65.4 1.70001 43.7C1.50001 31.4 4.90001 21.4 12.1 13.8C17.1 8.49999 26.1 2.19999 40.8 1.79999C41.3 1.79999 41.9 1.79999 42.6 1.79999C50.5 1.79999 61.8 3.69999 71.2 12.9C80.3 21.7 82.5 32.6 83 38.7C83.8 38.6 84.6 38.5 85.4 38.5C89.3 38.5 93.2 39.8 96.3 42.1L96.8 41.7C99.5 39.7 102.8 38.7 106.1 38.7C109.5 38.7 112.7 39.8 115.5 41.7L118 43.5C121 45.7 123.4 48.6 124.9 51.8C125.9 53.9 126.4 55.8 126.4 57.4V103.1C126.4 115.9 116 126.3 103.2 126.3H52.2Z" fill="#A4B1CD"/>
<path d="M32.7 72.1C17.2 75.1 5.30003 71 4.70003 43.6C4.60003 38.3 4.70002 25.9 14.3 15.8C24.3 5.19998 37.6 4.79998 41 4.69998C45 4.59998 58.4 4.39998 69.2 14.9C80.3 25.7 80.2 39.6 80.2 42.1L83.1 41.6C87.5 40.9 91.9 42.2 95.3 45L96.2 45.8L98.6 44.1C103.1 40.8 109.2 40.8 113.8 44.1L116.3 45.9C118.9 47.8 120.9 50.2 122.3 53C123 54.4 123.5 55.9 123.5 57.3V103C123.5 114.2 114.5 123.2 103.3 123.2H52.2C41.6 123.2 33.1 114.7 33 104.1L32.7 72.1Z" fill="#141D2B"/>
<path d="M50.3 105.2V107.1C50.3 107.2 50.4 107.3 50.5 107.3H105.1C105.2 107.3 105.3 107.2 105.3 107.1V105.2C105.3 105.1 105.4 105 105.5 105H107.9C108 105 108.1 104.9 108.1 104.8V93.9C108.1 93.8 108 93.7 107.9 93.7H106C105.9 93.7 105.8 93.6 105.8 93.5L105.7 86.9C105.7 86.8 105.8 86.6 105.9 86.6H107.9C108 86.6 108.1 86.5 108.1 86.4V76.3C108.1 76.2 108 76.1 107.9 76.1H106.1C106 76.1 105.9 76 105.9 75.9L105.8 71.2C105.8 71.1 105.9 71 106 71L107.9 70.7C108 70.7 108.1 70.6 108.1 70.5V60.1C108.1 60 108 59.9 107.9 59.9H106.3C106.2 59.9 106.1 59.8 106.1 59.7V58C106.1 57.8 105.9 57.7 105.7 57.8L98.2 63.9C98.1 64 98.1 64.2 98.2 64.3L99.4 65.5C99.5 65.6 99.5 65.8 99.4 65.9L91.7 71.8C91.6 71.9 91.6 72.1 91.7 72.2L94.4 74.2C94.5 74.3 94.5 74.5 94.4 74.6L75.1 85.4C74.9 85.5 74.6 85.3 74.8 85L81.1 74.8C81.2 74.7 81.1 74.5 81 74.4L78.8 73.3C78.7 73.2 78.6 73.1 78.7 72.9L84.6 64.6C84.7 64.5 84.6 64.3 84.5 64.2L82.5 63.5C82.4 63.5 82.3 63.3 82.4 63.1L85.7 57.7C85.8 57.5 85.7 57.3 85.5 57.3H50.3V58H48.5C48.4 58 48.3 58.1 48.3 58.2V60.2H47.8V71.1C47.8 71.2 47.9 71.3 48 71.3H50.3C50.4 71.3 50.5 71.4 50.5 71.5V75.7C50.5 75.8 50.4 75.9 50.3 76H48C47.9 76 47.8 76.1 47.8 76.2V86.7C47.8 86.8 47.9 86.9 48 86.9H50.3C50.4 86.9 50.5 87 50.5 87.1V93.6C50.5 93.7 50.4 93.8 50.3 93.8H48C47.9 93.8 47.8 93.9 47.8 94V104.3C47.8 104.4 47.9 104.5 48 104.5H50C50.2 105 50.3 105.1 50.3 105.2Z" fill="#1793D1"/>
<path d="M25 51.5C25 50.1 24.9 48.1 24.9 45.8C24.9 42.6 24.9 40.9 25 40C25.1 38.9 25.8 33.1 30.9 29.2C35.2 25.9 40.2 25.7 42 25.7C43.7 25.7 51 25.4 56 30.3C59.6 33.8 60.1 38.5 60.3 40.8C60.5 42.7 60.5 45.4 60.5 46.3C60.5 48.6 60.4 50.4 60.3 51.8" stroke="#1793D1" stroke-width="9.7547" stroke-miterlimit="2.5" stroke-linecap="round" stroke-linejoin="round"/>
</svg>
