<svg width="71" height="68" viewBox="0 0 71 68" fill="none" xmlns="http://www.w3.org/2000/svg">
<g filter="url(#filter0_d_54_3518)">
<path d="M39.9623 42.867C38.441 42.867 37.2063 41.6723 37.2063 40.2003C37.2063 38.7283 38.441 37.5337 39.9623 37.5337H62.2663C64.5117 37.5337 66.333 39.355 66.333 41.6003V47.3337C66.333 50.5203 65.0237 53.5737 62.6957 55.8137C60.381 58.067 57.2263 59.3337 53.933 59.3337H16.733C13.4397 59.3337 10.285 58.067 7.97034 55.8137C5.64234 53.5737 4.33301 50.5203 4.33301 47.3337V16.667C4.33301 13.4803 5.64234 10.427 7.97034 8.18699C10.285 5.93366 13.4397 4.66699 16.733 4.66699H53.933C57.2263 4.66699 60.381 5.93366 62.6957 8.18699C65.0237 10.427 66.333 13.4803 66.333 16.667V22.4537C66.333 23.9257 65.0983 25.1203 63.577 25.1203C62.057 25.1203 60.8223 23.9257 60.8223 22.4537V16.667C60.8223 14.8937 60.0917 13.2003 58.8103 11.947C57.5157 10.707 55.765 10.0003 53.933 10.0003H16.733C14.901 10.0003 13.1503 10.707 11.8557 11.947C10.5743 13.2003 9.84367 14.8937 9.84367 16.667V47.3337C9.84367 49.107 10.5743 50.8003 11.8557 52.0537C13.1503 53.2937 14.901 54.0003 16.733 54.0003H53.933C55.765 54.0003 57.5157 53.2937 58.8103 52.0537C60.0917 50.8003 60.8223 49.107 60.8223 47.3337V42.867H39.9623Z" fill="#9FEF00"/>
<path d="M18.693 24.1065C17.5304 23.1945 17.3237 21.5119 18.233 20.3532C19.1424 19.1945 20.817 18.9879 21.973 19.8932L32.181 27.8705C33.921 29.2292 33.921 31.4372 32.181 32.7959L21.973 40.7732C20.817 41.6785 19.1424 41.4719 18.233 40.3132C17.3237 39.1545 17.5304 37.4719 18.693 36.5599L26.6664 30.3332L18.693 24.1065Z" fill="#9FEF00"/>
</g>
<defs>
<filter id="filter0_d_54_3518" x="-1" y="0" width="72" height="72" filterUnits="userSpaceOnUse" color-interpolation-filters="sRGB">
<feFlood flood-opacity="0" result="BackgroundImageFix"/>
<feColorMatrix in="SourceAlpha" type="matrix" values="0 0 0 0 0 0 0 0 0 0 0 0 0 0 0 0 0 0 127 0" result="hardAlpha"/>
<feOffset dy="4"/>
<feGaussianBlur stdDeviation="2"/>
<feComposite in2="hardAlpha" operator="out"/>
<feColorMatrix type="matrix" values="0 0 0 0 0 0 0 0 0 0 0 0 0 0 0 0 0 0 0.25 0"/>
<feBlend mode="normal" in2="BackgroundImageFix" result="effect1_dropShadow_54_3518"/>
<feBlend mode="normal" in="SourceGraphic" in2="effect1_dropShadow_54_3518" result="shape"/>
</filter>
</defs>
</svg>
