<svg width="52" height="53" viewBox="0 0 52 53" fill="none" xmlns="http://www.w3.org/2000/svg">
<g clip-path="url(#clip0_55_3606)" filter="url(#filter0_d_55_3606)">
<mask id="mask0_55_3606" style="mask-type:luminance" maskUnits="userSpaceOnUse" x="2" y="0" width="48" height="48">
</mask>
<g mask="url(#mask0_55_3606)">
<path d="M44 20C44 18.896 44.896 18 46 18C47.104 18 48 18.896 48 20V40C48 42.76 45.76 45 43 45H14C12.896 45 12 44.104 12 43C12 41.896 12.896 41 14 41H42C43.104 41 44 40.104 44 39V20Z" fill="#9FEF00"/>
<path d="M8 43C8 44.104 7.104 45 6 45C4.896 45 4 44.104 4 43V8C4 5.792 5.792 4 8 4H19.96C21.064 4 22.52 4.7 23.209 5.562L25.335 8.219C25.68 8.65 26.408 9 26.96 9H46C47.104 9 48 9.896 48 11C48 12.104 47.104 13 46 13H26.04C24.936 13 23.48 12.3 22.791 11.438L21.289 9.562C20.6 8.7 19.144 8 18.04 8H10C8.896 8 8 8.896 8 10V43Z" fill="#9FEF00"/>
</g>
</g>
<defs>
<filter id="filter0_d_55_3606" x="-2" y="0" width="56" height="56" filterUnits="userSpaceOnUse" color-interpolation-filters="sRGB">
<feFlood flood-opacity="0" result="BackgroundImageFix"/>
<feColorMatrix in="SourceAlpha" type="matrix" values="0 0 0 0 0 0 0 0 0 0 0 0 0 0 0 0 0 0 127 0" result="hardAlpha"/>
<feOffset dy="4"/>
<feGaussianBlur stdDeviation="2"/>
<feComposite in2="hardAlpha" operator="out"/>
<feColorMatrix type="matrix" values="0 0 0 0 0 0 0 0 0 0 0 0 0 0 0 0 0 0 0.25 0"/>
<feBlend mode="normal" in2="BackgroundImageFix" result="effect1_dropShadow_55_3606"/>
<feBlend mode="normal" in="SourceGraphic" in2="effect1_dropShadow_55_3606" result="shape"/>
</filter>
</defs>
</svg>
