<svg width="128" height="128" viewBox="0 0 128 128" fill="none" xmlns="http://www.w3.org/2000/svg">
<path d="M52.6 124.7C40.7 124.7 31 115 30.9 103.2L30.7 75.4C29.1 75.6 27.5 75.7 26.1 75.7C11.3 75.7 3.9 65.4 3.5 44.2C3 32.3 6.4 22.5 13.4 15C18.3 9.9 27.1 3.7 41.4 3.3C41.9 3.3 42.5 3.3 43.1 3.3C50.9 3.3 62 5.1 71.1 14C79.9 22.6 82.1 33.2 82.6 39.1C83.3 39 84.1 39 84.8 39C88.6 39 92.3 40.2 95.4 42.5L95.9 42.2C98.6 40.3 101.7 39.2 105 39.2C108.3 39.2 111.5 40.2 114.2 42.2L116.6 43.9C119.6 46.1 121.9 48.8 123.4 52C124.4 54.1 124.8 55.9 124.8 57.5V102C124.8 114.5 114.6 124.7 102.1 124.7H52.6Z" fill="#A4B1CD"/>
<path d="M33.6 71.9C18.6 74.9 6.9 70.8 6.3 44.2C6.2 39 6.3 27 15.6 17.2C25.4 6.8 38.3 6.4 41.6 6.3C45.5 6.2 58.6 6 69 16.2C79.8 26.7 79.7 40.3 79.7 42.7L82.5 42.2C86.8 41.5 91.1 42.7 94.3 45.5L95.2 46.3L97.5 44.6C101.9 41.4 107.9 41.4 112.3 44.6L114.7 46.3C117.2 48.1 119.2 50.5 120.5 53.2C121.1 54.6 121.6 56.1 121.6 57.4V101.9C121.6 112.8 112.8 121.6 101.9 121.6H52.6C42.3 121.6 34 113.3 33.9 103L33.6 71.9Z" fill="#141D2B"/>
<path d="M50.7 104.2V106.1C50.7 106.2 50.8 106.3 50.9 106.3H104.1C104.2 106.3 104.3 106.2 104.3 106.1V104.2C104.3 104.1 104.4 104 104.5 104H106.8C106.9 104 107 103.9 107 103.8V93.1C107 93 106.9 92.9 106.8 92.9H105C104.9 92.9 104.8 92.8 104.8 92.7L104.7 86.3C104.7 86.2 104.8 86 104.9 86H106.9C107 86 107.1 85.9 107.1 85.8V76C107.1 75.9 107 75.8 106.9 75.8H105.2C105.1 75.8 105 75.7 105 75.6L104.9 71C104.9 70.9 105 70.8 105.1 70.8L107 70.5C107.1 70.5 107.2 70.4 107.2 70.3V60.4C107.2 60.3 107.1 60.2 107 60.2H105.4C105.3 60.2 105.2 60.1 105.2 60V58.4C105.2 58.2 105 58.1 104.8 58.2L97.5 64.1C97.4 64.2 97.4 64.4 97.5 64.5L98.7 65.6C98.8 65.7 98.8 65.9 98.7 66L91 71.5C90.9 71.6 90.9 71.8 91 71.9L93.6 73.8C93.7 73.9 93.7 74.1 93.6 74.2L74.8 84.9C74.6 85 74.3 84.8 74.5 84.5L80.7 74.5C80.8 74.4 80.7 74.2 80.6 74.1L78.5 73C78.4 72.9 78.3 72.8 78.4 72.6L84.1 64.5C84.2 64.4 84.1 64.2 84 64.1L82 63.4C81.9 63.4 81.8 63.2 81.9 63L85.2 57.7C85.3 57.5 85.2 57.3 85 57.3H50.7V57.9H49C48.9 57.9 48.8 58 48.8 58.1V60.1H48.3V70.7C48.3 70.8 48.4 70.9 48.5 70.9H50.7C50.8 70.9 50.9 71 50.9 71.1V75.1C50.9 75.2 50.8 75.3 50.7 75.4H48.5C48.4 75.4 48.3 75.5 48.3 75.6V85.8C48.3 85.9 48.4 86 48.5 86H50.7C50.8 86 50.9 86.1 50.9 86.2V93C50.9 93.1 50.8 93.2 50.7 93.2H48.5C48.4 93.2 48.3 93.3 48.3 93.4V103.5C48.3 103.6 48.4 103.7 48.5 103.7H50.5C50.5 103.9 50.7 104 50.7 104.2Z" fill="#C50ED2"/>
<path d="M26 51.9C26 50.6 25.9 48.6 25.9 46.3C25.9 43.1 25.9 41.6 26 40.6C26.1 39.5 26.8 33.9 31.8 30.1C36 26.9 40.9 26.7 42.6 26.7C44.3 26.7 51.4 26.4 56.2 31.2C59.7 34.6 60.1 39.2 60.4 41.5C60.6 43.4 60.6 46 60.6 46.8C60.6 49 60.5 50.8 60.4 52.1" stroke="#C50ED2" stroke-width="9.4961" stroke-miterlimit="2.5" stroke-linecap="round" stroke-linejoin="round"/>
</svg>
