<?xml version="1.0" encoding="UTF-8" standalone="no"?>
<!-- Created with Inkscape (http://www.inkscape.org/) -->

<svg
   width="110.06163mm"
   height="110.06163mm"
   viewBox="0 0 110.06163 110.06163"
   version="1.1"
   id="svg13705"
   xmlns:xlink="http://www.w3.org/1999/xlink"
   xmlns="http://www.w3.org/2000/svg"
   xmlns:svg="http://www.w3.org/2000/svg">
  <defs
     id="defs13702">
    <linearGradient
       id="linearGradient16627">
      <stop
         style="stop-color:#1793d1;stop-opacity:1;"
         offset="0.22666624"
         id="stop16623" />
      <stop
         style="stop-color:#6d6d6d;stop-opacity:0;"
         offset="0.22666624"
         id="stop16625" />
    </linearGradient>
    <linearGradient
       id="linearGradient16619">
      <stop
         style="stop-color:#575757;stop-opacity:1;"
         offset="0"
         id="stop16617" />
    </linearGradient>
    <radialGradient
       xlink:href="#linearGradient16627"
       id="radialGradient16631"
       cx="106.07553"
       cy="150.83287"
       fx="106.07553"
       fy="150.83287"
       r="47.687672"
       gradientUnits="userSpaceOnUse" />
  </defs>
  <g
     id="layer1"
     transform="translate(-51.227758,-95.801648)">
    <circle
       cx="106.2613"
       cy="151.30542"
       r="36.766502"
       fill="none"
       stroke="#a400a4"
       stroke-linecap="round"
       stroke-linejoin="round"
       stroke-width="11.8166"
       id="circle123-7"
       style="display:inline;fill:#ffffff;fill-opacity:1;stroke:#ffffff;stroke-width:21.1667;stroke-dasharray:none;stroke-opacity:1;paint-order:stroke fill markers" />
    <circle
       id="circle119"
       style="display:inline;fill:url(#radialGradient16631);fill-opacity:1;fill-rule:nonzero;stroke:#1793d1;stroke-width:0.211;stroke-dasharray:none;stroke-opacity:1;paint-order:stroke fill markers"
       r="47.581936"
       cy="150.83287"
       cx="106.07553" />
    <circle
       cx="106.25896"
       cy="151.23476"
       r="36.766502"
       fill="none"
       stroke="#a400a4"
       stroke-linecap="round"
       stroke-linejoin="round"
       stroke-width="11.8166"
       id="circle123"
       style="display:inline;fill:none;fill-opacity:1;stroke:#1793d1;stroke-opacity:1;paint-order:stroke fill markers" />
    <path
       d="m 140.70771,143.97459 c -3.6531,2.7e-4 -6.61431,2.96148 -6.61458,6.61458 v 0.48319 c 2.7e-4,3.6531 2.96148,6.61431 6.61458,6.61458 h 11.98272 c 3.6531,-2.7e-4 6.61432,-2.96148 6.61458,-6.61458 v -0.48319 c -2.6e-4,-3.6531 -2.96148,-6.61431 -6.61458,-6.61458 z"
       color="#000000"
       fill="#a400a4"
       stroke="#ffffff"
       stroke-linecap="round"
       stroke-linejoin="round"
       stroke-width="3.96875"
       id="path125"
       style="display:inline;fill:#1793d1;fill-opacity:1;stroke-width:3.96875;stroke-dasharray:none;paint-order:stroke fill markers" />
    <path
       d="m 59.826712,143.97459 c -3.6531,2.7e-4 -6.61432,2.96148 -6.61458,6.61458 v 0.48319 c 3.7e-4,3.6531 2.96148,6.61431 6.61458,6.61458 h 11.98271 c 3.6531,-2.7e-4 6.61432,-2.96148 6.61459,-6.61458 v -0.48319 c -2.7e-4,-3.6531 -2.96149,-6.61431 -6.61459,-6.61458 z"
       color="#000000"
       fill="#a400a4"
       stroke="#ffffff"
       stroke-linecap="round"
       stroke-linejoin="round"
       stroke-width="3.96875"
       id="path127"
       style="fill:#1793d1;fill-opacity:1;paint-order:stroke fill markers" />
    <path
       d="m 99.403612,116.38384 c 2.7e-4,3.65311 2.961478,6.61432 6.614578,6.61458 h 0.48369 c 3.6531,-2.6e-4 6.61432,-2.96147 6.61458,-6.61458 V 104.4006 c -2.6e-4,-3.6531 -2.96148,-6.614316 -6.61458,-6.614581 h -0.48369 c -3.6531,3.71e-4 -6.614308,2.961481 -6.614578,6.614581 z"
       color="#000000"
       fill="#a400a4"
       stroke="#ffffff"
       stroke-linecap="round"
       stroke-linejoin="round"
       stroke-width="3.96875"
       id="path129"
       style="fill:#1793d1;fill-opacity:1;stroke-width:3.96875;stroke-dasharray:none;paint-order:stroke fill markers" />
    <path
       d="m 99.403612,197.26432 c 2.7e-4,3.6531 2.961478,6.61432 6.614578,6.61458 h 0.48369 c 3.6531,-2.6e-4 6.61432,-2.96148 6.61458,-6.61458 V 185.2816 c -2.6e-4,-3.6531 -2.96148,-6.61431 -6.61458,-6.61458 h -0.48369 c -3.6531,2.7e-4 -6.614308,2.96148 -6.614578,6.61458 z"
       color="#000000"
       fill="#a400a4"
       stroke="#ffffff"
       stroke-linecap="round"
       stroke-linejoin="round"
       stroke-width="3.96875"
       id="path131"
       style="display:inline;fill:#1793d1;fill-opacity:1;paint-order:stroke fill markers" />
  </g>
</svg>
