<?xml version="1.0" encoding="UTF-8" standalone="no"?>
<!-- Created with Inkscape (http://www.inkscape.org/) -->

<svg
   width="99.131981mm"
   height="99.834396mm"
   viewBox="0 0 99.131981 99.834396"
   version="1.1"
   id="svg8653"
   xmlns="http://www.w3.org/2000/svg"
   xmlns:svg="http://www.w3.org/2000/svg">
  <defs
     id="defs8650" />
  <g
     id="layer1"
     transform="translate(-98.674845,-156.37599)">
    <path
       d="m 158.46525,159.4187 a 8.7955834,8.7955834 0 0 1 8.79559,8.79619 8.7955834,8.7955834 0 0 1 -8.79559,8.79558 8.7955834,8.7955834 0 0 1 -8.79558,-8.79558 8.7955834,8.7955834 0 0 1 8.79558,-8.79619 z m -13.64266,18.02456 c 3.64261,-0.009 7.32352,0.49531 11.00673,1.88385 4.90948,2.33315 8.1993,6.36125 11.53471,11.52772 l 2.34395,3.62951 8.82858,-0.25596 c -9.6e-4,3.20152 -9.6e-4,6.40314 -9.6e-4,9.60476 l -5.49537,0.5727 c -4.64679,0.48436 -5.69616,0.46772 -6.79833,-0.1107 -1.68756,-0.88575 -4.2048,-3.56521 -6.96863,-7.41852 -1.21407,-1.69256 -2.20765,-2.82763 -2.20765,-2.52184 0,0.3058 -1.40696,3.83881 -3.12722,7.85161 l -3.12782,7.29632 10.08575,21.22748 c 5.54706,11.67471 10.19775,21.49547 10.33474,21.82346 v 6.5e-4 c 0.31825,0.75971 -8.28149,0.83352 -10.94373,0.0941 -1.76565,-0.49034 -1.86165,-0.64805 -7.67931,-12.52169 -3.24052,-6.61354 -7.15702,-14.85264 -8.70318,-18.31055 -1.54636,-3.45752 -2.85413,-6.24395 -2.90573,-6.19215 -1.32857,7.71501 0.15377,17.14158 -7.15612,22.25945 h -16.06061 c -18.485544,0 -17.22358,0.4212 -14.50064,-4.83908 1.15417,-2.22954 2.05455,-3.29332 3.45941,-4.0888 1.80006,-1.01947 2.41394,-1.07617 11.79871,-1.08337 l 9.89936,-0.009 c 0.0384,-3.91031 0.62875,-7.79171 0.92212,-11.68871 1.00727,-10.19475 1.88255,-13.29868 6.49624,-23.03644 l 2.55003,-5.38426 -9.61526,0.27131 -3.06002,5.48516 c -1.68266,3.01683 -3.73631,6.18335 -4.56389,7.03713 -2.32695,2.40074 -5.10118,1.93415 -6.35605,-1.06927 -0.64919,-1.55377 -0.58085,-1.76256 2.94933,-9.04418 3.80971,-7.85851 8.3572,-10.17975 13.28167,-11.21172 4.47639,-0.91045 9.09568,-1.76796 13.77867,-1.77896 h 6.5e-4 z"
       fill="#a400a4"
       stroke-width="0.47711"
       id="path235"
       style="fill:#1793d1;fill-opacity:1;stroke:#ffffff;stroke-width:6.08542;stroke-linecap:butt;stroke-linejoin:miter;stroke-dasharray:none;stroke-opacity:1;paint-order:stroke fill markers" />
    <path
       d="m 186.39556,160.51368 c -1.39916,0.0188 -2.85593,0.93664 -3.18272,2.52523 l -4.47819,21.77047 c -0.41832,2.03345 0.11956,3.65921 1.56776,4.64688 l 0.2797,0.19062 -1.93205,4.89678 c -0.76184,1.93115 -0.41996,3.8628 0.76644,4.33089 l 0.63404,0.24984 c 1.18637,0.46802 2.75483,-0.70957 3.51661,-2.64074 l 3.12053,-7.9102 c 0.12237,-0.31022 0.21569,-0.62005 0.28218,-0.92421 l 7.89531,-20.01351 c 0.76185,-1.93115 0.0624,-4.0036 -1.56817,-4.64688 l -5.76565,-2.27495 c -0.3567,-0.14072 -0.74395,-0.20584 -1.13578,-0.20056 z"
       fill="#a400a4"
       stroke-linecap="round"
       stroke-linejoin="round"
       stroke-width="5.0964"
       id="path237"
       style="fill:#1793d1;fill-opacity:1;stroke:#ffffff;stroke-width:5.29167;stroke-dasharray:none;stroke-opacity:1;paint-order:stroke fill markers" />
  </g>
</svg>
