<?xml version="1.0" encoding="UTF-8" standalone="no"?>
<!-- Created with Inkscape (http://www.inkscape.org/) -->

<svg
   width="413"
   height="413"
   viewBox="0 0 413 413"
   version="1.1"
   id="SVGRoot"
   xmlns="http://www.w3.org/2000/svg"
   xmlns:svg="http://www.w3.org/2000/svg">
  <defs
     id="defs12174" />
  <g
     id="layer1">
    <path
       d="m 209.66004,19.393216 c -0.5854,0 -1.17204,0.1002 -1.73182,0.30073 L 55.50363,74.272773 c -2.08054,0.74171 -3.47183,2.73812 -3.47183,4.97714 0,55.236427 14.397,119.078637 39.491313,175.165447 20.357167,45.50439 56.967417,106.20589 115.752747,136.95159 0.75108,0.39159 1.56714,0.58857 2.38353,0.58857 0.81633,0 1.63242,-0.19653 2.38354,-0.58857 58.78155,-30.75023 95.39293,-91.44342 115.75653,-136.95159 25.09733,-56.09059 39.49131,-119.93658 39.49131,-175.165447 0,-2.23917 -1.3897,-4.23562 -3.47017,-4.97714 h -0.0151 L 211.38845,19.693946 c -0.55977,-0.20057 -1.14483,-0.30073 -1.73023,-0.30073 z m -0.0159,85.970804 c 0.31918,0 0.63884,0.0527 0.94441,0.1601 l 83.14378,29.38813 h 0.003 c 1.13342,0.40115 1.89354,1.47443 1.89354,2.68268 0,29.73356 -7.84913,64.11811 -21.54051,94.32335 -11.10738,24.49451 -31.073,57.18284 -63.13924,73.73677 -0.40591,0.21009 -0.8537,0.31686 -1.29687,0.31686 -0.44787,0 -0.89588,-0.1068 -1.30172,-0.31686 -32.06612,-16.55506 -52.03892,-49.23848 -63.13912,-73.73677 -13.69062,-30.20487 -21.54051,-64.58298 -21.54051,-94.32335 0,-1.2081 0.76008,-2.2815 1.89357,-2.68268 l 83.14378,-29.38813 c 0.30334,-0.1073 0.62051,-0.1601 0.93953,-0.1601 z"
       stroke="#ffffff"
       stroke-width="25.833"
       id="path207"
       style="fill:#008000;stroke-width:40;stroke-dasharray:none" />
    <path
       style="fill:#1793d1;fill-opacity:1;stroke:none;stroke-width:0.893999;stroke-dasharray:none;stroke-opacity:1"
       d="M 198.83039,385.94622 C 171.30336,369.41059 144.67806,342.95489 122.8437,310.4435 82.867823,250.91945 56.19639,167.66089 52.75457,91.650523 52.18672,79.110223 52.26409,78.030463 53.84288,76.460293 54.79725,75.511153 89.343993,62.6718 132.62973,47.179026 l 77.08723,-27.59095 77.02662,27.57797 c 43.8599,15.703234 77.76004,28.311397 78.72992,29.281277 1.58317,1.58317 1.66019,2.65539 1.09199,15.2032 -3.45039,76.200087 -29.96951,158.872697 -70.25388,219.014737 -15.8023,23.59187 -39.51607,49.54396 -57.60057,63.03741 -10.33932,7.71454 -26.81953,17.8282 -29.05101,17.8282 -0.84307,0 -5.71641,-2.51306 -10.82964,-5.58465 z m 15.14677,-81.45945 c 6.45904,-3.27304 18.00561,-12.15212 25.3376,-19.48411 30.85002,-30.85002 53.17695,-85.8095 56.56875,-139.24832 0.46698,-7.35728 0.33653,-9.64096 -0.59244,-10.37222 -0.65518,-0.51575 -20.18126,-7.63331 -43.39127,-15.81684 l -42.20003,-14.87911 -42.23975,14.88187 c -23.23187,8.18502 -42.80201,15.40009 -43.48916,16.0335 -1.05148,0.96919 -1.08726,3.19406 -0.2259,14.04458 4.81574,60.66341 32.2845,118.88573 69.19663,146.66804 5.29983,3.98897 15.30899,10.23621 16.52476,10.31397 0.1392,0.009 2.16906,-0.95471 4.51081,-2.14136 z"
       id="path32721" />
  </g>
</svg>
