<?xml version="1.0" encoding="UTF-8" standalone="no"?>
<!-- Created with Inkscape (http://www.inkscape.org/) -->

<svg
   width="99.786636mm"
   height="99.859558mm"
   viewBox="0 0 99.786636 99.859558"
   version="1.1"
   id="svg22254"
   xmlns="http://www.w3.org/2000/svg"
   xmlns:svg="http://www.w3.org/2000/svg">
  <defs
     id="defs22251" />
  <g
     id="layer1"
     transform="translate(-27.855214,-86.386869)">
    <path
       d="m 103.70686,89.694163 c -1.76135,0 -3.51921,0.676733 -4.868777,2.02625 L 33.159694,157.3908 c -2.699233,2.69923 -2.699233,7.04573 0,9.74496 l 13.461669,13.46167 c 2.699233,2.69923 7.045726,2.69923 9.74496,0 l 65.670387,-65.67039 c 2.69923,-2.69923 2.69923,-7.04573 0,-9.74496 L 108.58204,91.720413 c -1.34956,-1.349567 -3.11482,-2.02625 -4.87618,-2.02625 z M 86.301286,117.28148 c 0.880658,0 1.759557,0.33827 2.43444,1.01308 l 6.734737,6.72743 c 1.349567,1.34957 1.349567,3.51922 0,4.86888 l -24.133409,24.14041 c -1.349566,1.34957 -3.526513,1.34957 -4.87608,0 l -6.727434,-6.73474 c -1.349567,-1.34956 -1.349567,-3.51921 0,-4.86888 l 24.133406,-24.1334 c 0.674763,-0.67475 1.553662,-1.01298 2.43434,-1.01298 z"
       enable-background="new"
       fill="#a400a4"
       fill-rule="evenodd"
       stroke-width="7.7441"
       id="path221-5"
       style="fill:#ffffff;fill-opacity:1;stroke:#ffffff;stroke-width:6.61458;stroke-dasharray:none;stroke-opacity:1;paint-order:stroke fill markers" />
    <path
       d="m 51.791391,90.03868 c -1.761357,0 -3.519214,0.676733 -4.868781,2.02625 L 33.460942,105.5266 c -2.699234,2.69923 -2.699234,7.04573 0,9.74496 l 65.678383,65.67039 c 2.699235,2.69923 7.045725,2.69923 9.744955,0 l 13.45468,-13.46168 c 2.69924,-2.69923 2.69924,-7.03842 0,-9.73796 L 56.668571,92.06393 c -1.349567,-1.349566 -3.114724,-2.02625 -4.87608,-2.02625 z M 69.196962,117.626 c 0.880658,0 1.766857,0.33826 2.44174,1.01308 l 24.133406,24.1334 c 1.349567,1.34957 1.349567,3.51922 0,4.86888 l -6.734734,6.73484 c -1.349567,1.34956 -3.519214,1.34956 -4.868781,0 L 60.035188,130.23579 c -1.349567,-1.34957 -1.349567,-3.51921 0,-4.86878 l 6.727434,-6.72743 c 0.674763,-0.67477 1.553662,-1.01298 2.43434,-1.01298 z"
       enable-background="new"
       fill="#a400a4"
       fill-rule="evenodd"
       stroke-width="7.7441"
       id="path223-3"
       style="fill:#ffffff;fill-opacity:1;stroke:#ffffff;stroke-width:6.61458;stroke-dasharray:none;stroke-opacity:1;paint-order:stroke fill markers" />
    <path
       d="m 103.76266,89.944298 c -1.76136,0 -3.51922,0.676734 -4.868783,2.026251 L 33.215494,157.64093 c -2.699234,2.69924 -2.699234,7.04573 0,9.74496 l 13.461669,13.46167 c 2.699233,2.69923 7.045726,2.69923 9.74496,0 l 65.670387,-65.67038 c 2.69923,-2.69924 2.69923,-7.04573 0,-9.74496 L 108.63784,91.970549 c -1.34957,-1.349567 -3.11483,-2.026251 -4.87618,-2.026251 z M 86.357086,117.53162 c 0.880658,0 1.759556,0.33826 2.43444,1.01307 l 6.734734,6.72744 c 1.349567,1.34957 1.349567,3.51921 0,4.86888 l -24.133406,24.1404 c -1.349567,1.34957 -3.526513,1.34957 -4.87608,0 l -6.727434,-6.73473 c -1.349567,-1.34957 -1.349567,-3.51921 0,-4.86888 l 24.133405,-24.13341 c 0.674764,-0.67475 1.553662,-1.01297 2.434341,-1.01297 z"
       enable-background="new"
       fill="#a400a4"
       fill-rule="evenodd"
       stroke-width="7.7441"
       id="path221"
       style="fill:#1793d1;fill-opacity:1;stroke-width:7.74383;stroke-dasharray:none" />
    <path
       d="m 51.553942,89.944298 c -1.761356,0 -3.519213,0.676734 -4.86878,2.026251 L 33.223494,105.43222 c -2.699234,2.69923 -2.699234,7.04572 0,9.74496 l 65.678383,65.67038 c 2.699233,2.69923 7.045723,2.69923 9.744963,0 l 13.45467,-13.46167 c 2.69923,-2.69923 2.69923,-7.03842 0,-9.73796 L 56.431122,91.969549 c -1.349566,-1.349567 -3.114723,-2.02625 -4.87608,-2.02625 z m 17.405572,27.587322 c 0.880658,0 1.766856,0.33826 2.44174,1.01307 L 95.53466,142.6781 c 1.349566,1.34957 1.349566,3.51921 0,4.86888 l -6.734735,6.73483 c -1.349566,1.34957 -3.519213,1.34957 -4.86878,0 l -24.133406,-24.1404 c -1.349566,-1.34957 -1.349566,-3.51921 0,-4.86878 l 6.727435,-6.72744 c 0.674763,-0.67476 1.553662,-1.01297 2.43434,-1.01297 z"
       enable-background="new"
       fill="#a400a4"
       fill-rule="evenodd"
       stroke-width="7.74391"
       id="path223"
       style="fill:#1793d1;fill-opacity:1" />
  </g>
</svg>
