<?xml version="1.0" encoding="UTF-8" standalone="no"?>
<!-- Created with Inkscape (http://www.inkscape.org/) -->

<svg
   width="98.987503mm"
   height="98.986755mm"
   viewBox="0 0 98.987503 98.986755"
   version="1.1"
   id="svg10521"
   xmlns="http://www.w3.org/2000/svg"
   xmlns:svg="http://www.w3.org/2000/svg">
  <defs
     id="defs10518" />
  <g
     id="layer1"
     transform="translate(-59.87679,-81.124418)">
    <g
       transform="matrix(-0.99997538,0,0,0.99997538,177.65043,-99.188928)"
       id="g195"
       style="stroke:#ffffff;stroke-width:5.2918;stroke-dasharray:none;stroke-opacity:1;paint-order:stroke fill markers">
      <path
         d="m 55.846,169.74 c -26.156,0 -47.645,21.486 -47.645,47.643 0,26.158 21.487,47.646 47.645,47.646 6.1804,0 12.099,-1.2581 17.564,-3.4375 l 23.391,23.344 a 13.23,13.23 0 0 0 18.699,-0.008 l 7.8887,-7.8867 a 13.23,13.23 0 0 0 0.0117,-18.701 l -23.348,-23.394 c 2.179,-5.4656 3.4395,-11.383 3.4395,-17.562 0,-26.156 -21.489,-47.643 -47.646,-47.643 z m 0,37.047 c 6.066,0 10.6,4.5324 10.6,10.596 0,6.066 -4.5336,10.6 -10.6,10.6 -6.0633,0 -10.596,-4.5336 -10.596,-10.6 0,-6.0633 4.5324,-10.596 10.596,-10.596 z"
         color="#000000"
         color-rendering="auto"
         dominant-baseline="auto"
         fill="#ffffff"
         image-rendering="auto"
         opacity="0.3"
         shape-rendering="auto"
         solid-color="#000000"
         stroke="#000000"
         stroke-linejoin="round"
         stroke-width="5.2917"
         style="font-variant-ligatures:normal;font-variant-position:normal;font-variant-caps:normal;font-variant-numeric:normal;font-variant-alternates:normal;font-feature-settings:normal;text-indent:0;text-decoration-line:none;text-decoration-style:solid;text-decoration-color:#000000;text-transform:none;text-orientation:mixed;white-space:normal;shape-padding:0;display:none;isolation:auto;mix-blend-mode:normal;stroke:#ffffff;stroke-width:5.2918;stroke-dasharray:none;stroke-opacity:1;paint-order:stroke fill markers"
         id="path187" />
      <path
         d="m 55.846,169.74 c -26.156,0 -47.645,21.486 -47.645,47.643 0,26.158 21.487,47.646 47.645,47.646 6.1804,0 12.099,-1.2581 17.564,-3.4375 l 23.391,23.344 c 5.1676,5.1571 13.536,5.1535 18.699,-0.008 l 7.8887,-7.8867 c 5.1638,-5.1624 5.1691,-13.532 0.0117,-18.701 l -23.348,-23.395 c 2.179,-5.4656 3.4395,-11.383 3.4395,-17.562 0,-26.156 -21.489,-47.643 -47.646,-47.643 z"
         color="#000000"
         color-rendering="auto"
         dominant-baseline="auto"
         fill="#ffffff"
         image-rendering="auto"
         shape-rendering="auto"
         solid-color="#000000"
         style="font-variant-ligatures:normal;font-variant-position:normal;font-variant-caps:normal;font-variant-numeric:normal;font-variant-alternates:normal;font-feature-settings:normal;text-indent:0;text-decoration-line:none;text-decoration-style:solid;text-decoration-color:#000000;text-transform:none;text-orientation:mixed;white-space:normal;shape-padding:0;display:none;isolation:auto;mix-blend-mode:normal;stroke:#ffffff;stroke-width:5.2918;stroke-dasharray:none;stroke-opacity:1;paint-order:stroke fill markers"
         id="path189" />
      <g
         transform="matrix(0.4925,0,0,0.4925,-26.825,135.24)"
         id="g193"
         style="fill:#1793d1;fill-opacity:1;stroke:#ffffff;stroke-width:10.7448;stroke-dasharray:none;stroke-opacity:1;paint-order:stroke fill markers">
        <path
           d="m 232.37,215.16 h -8.4934 l -3.0128,-2.9051 c 10.537,-12.256 16.879,-28.166 16.879,-45.477 0,-38.594 -31.284,-69.877 -69.881,-69.877 -38.594,0 -69.877,31.284 -69.877,69.877 0,38.597 31.284,69.883 69.877,69.883 17.309,0 33.221,-6.3449 45.477,-16.879 l 2.9052,3.0093 v 8.4899 l 53.751,53.647 16.018,-16.015 z m -64.508,0 c -26.768,0 -48.378,-21.61 -48.378,-48.381 0,-26.768 21.61,-48.378 48.378,-48.378 26.771,0 48.381,21.61 48.381,48.378 0,26.771 -21.61,48.381 -48.381,48.381 z"
           fill="#a400a4"
           stroke-width="0.88856"
           id="path191"
           style="fill:#1793d1;fill-opacity:1;stroke:#ffffff;stroke-width:10.7448;stroke-dasharray:none;stroke-opacity:1;paint-order:stroke fill markers" />
      </g>
    </g>
    <path
       d="m 119.53005,100.19981 a 2.6461349,2.6461349 0 0 0 -2.64634,2.64633 v 18.64354 a 2.6461349,2.6461349 0 0 0 2.64634,2.64633 h 4.56048 a 2.6461349,2.6461349 0 0 0 2.64634,-2.64633 v -18.64354 a 2.6461349,2.6461349 0 0 0 -2.64634,-2.64633 z m 0,28.53229 a 2.6461349,2.6461349 0 0 0 -2.64634,2.64634 v 1.93945 a 2.6461349,2.6461349 0 0 0 2.64634,2.64483 h 4.56048 a 2.6461349,2.6461349 0 0 0 2.64634,-2.64483 v -1.93945 a 2.6461349,2.6461349 0 0 0 -2.64634,-2.64634 z"
       color="#000000"
       fill="#a400a4"
       stroke-linecap="round"
       stroke-linejoin="round"
       stroke-width="5.2918"
       style="fill:#1793d1;fill-opacity:1;stroke:#ffffff;stroke-width:3.96875;stroke-dasharray:none;stroke-opacity:1;paint-order:stroke fill markers"
       id="path197" />
  </g>
</svg>
